WorkSans-Light.ufo
<glyph name="exclam" format="2">
  <advance width="182"/>
  <unicode hex="0021"/>
  <outline>
    <contour>
      <point x="83" y="660" type="line"/>
      <point x="83" y="302" type="line"/>
      <point x="83" y="170" type="line"/>
      <point x="99" y="170" type="line"/>
      <point x="99" y="302" type="line"/>
      <point x="99" y="660" type="line"/>
    </contour>
    <contour>
      <point x="78" y="39"/>
      <point x="69" y="30"/>
      <point x="69" y="17" type="curve" smooth="yes"/>
      <point x="69" y="4"/>
      <point x="78" y="-5"/>
      <point x="91" y="-5" type="curve" smooth="yes"/>
      <point x="104" y="-5"/>
      <point x="113" y="4"/>
      <point x="113" y="17" type="curve" smooth="yes"/>
      <point x="113" y="30"/>
      <point x="104" y="39"/>
      <point x="91" y="39" type="curve" smooth="yes"/>
    </contour>
  </outline>
</glyph>
<glyph name="numbersign" format="2">
  <advance width="632"/>
  <unicode hex="0023"/>
  <outline>
    <contour>
      <point x="462" y="660" type="line"/>
      <point x="362" y="0" type="line"/>
      <point x="378" y="0" type="line"/>
      <point x="478" y="660" type="line"/>
    </contour>
    <contour>
      <point x="43" y="227" type="line"/>
      <point x="43" y="213" type="line"/>
      <point x="559" y="213" type="line"/>
      <point x="559" y="227" type="line"/>
    </contour>
    <contour>
      <point x="249" y="660" type="line"/>
      <point x="149" y="0" type="line"/>
      <point x="165" y="0" type="line"/>
      <point x="265" y="660" type="line"/>
    </contour>
    <contour>
      <point x="73" y="457" type="line"/>
      <point x="73" y="443" type="line"/>
      <point x="589" y="443" type="line"/>
      <point x="589" y="457" type="line"/>
    </contour>
  </outline>
</glyph>
<glyph name="plus" format="2">
  <advance width="604"/>
  <unicode hex="002B"/>
  <outline>
    <contour>
      <point x="294" y="545" type="line"/>
      <point x="294" y="79" type="line"/>
      <point x="310" y="79" type="line"/>
      <point x="310" y="545" type="line"/>
    </contour>
    <contour>
      <point x="70" y="323" type="line"/>
      <point x="70" y="309" type="line"/>
      <point x="534" y="309" type="line"/>
      <point x="534" y="323" type="line"/>
    </contour>
  </outline>
</glyph>
<glyph name="hyphen" format="2">
  <advance width="417"/>
  <unicode hex="002D"/>
  <outline>
    <contour>
      <point x="68" y="278" type="line"/>
      <point x="68" y="262" type="line"/>
      <point x="349" y="262" type="line"/>
      <point x="349" y="278" type="line"/>
    </contour>
  </outline>
</glyph>
<glyph name="zero" format="2">
  <advance width="590"/>
  <unicode hex="0030"/>
  <outline>
    <contour>
      <point x="446" y="-10"/>
      <point x="530" y="111"/>
      <point x="530" y="330" type="curve" smooth="yes"/>
      <point x="530" y="549"/>
      <point x="446" y="670"/>
      <point x="295" y="670" type="curve" smooth="yes"/>
      <point x="144" y="670"/>
      <point x="60" y="549"/>
      <point x="60" y="330" type="curve" smooth="yes"/>
      <point x="60" y="111"/>
      <point x="144" y="-10"/>
      <point x="295" y="-10" type="curve" smooth="yes"/>
    </contour>
    <contour>
      <point x="154" y="4"/>
      <point x="76" y="119"/>
      <point x="76" y="330" type="curve" smooth="yes"/>
      <point x="76" y="541"/>
      <point x="154" y="656"/>
      <point x="295" y="656" type="curve" smooth="yes"/>
      <point x="436" y="656"/>
      <point x="514" y="541"/>
      <point x="514" y="330" type="curve" smooth="yes"/>
      <point x="514" y="119"/>
      <point x="436" y="4"/>
      <point x="295" y="4" type="curve" smooth="yes"/>
    </contour>
  </outline>
</glyph>
<glyph name="four" format="2">
  <advance width="550"/>
  <unicode hex="0034"/>
  <outline>
    <contour>
      <point x="388" y="219" type="line"/>
      <point x="388" y="660" type="line"/>
      <point x="366" y="660" type="line"/>
      <point x="38" y="219" type="line"/>
      <point x="38" y="205" type="line"/>
      <point x="372" y="205" type="line"/>
      <point x="372" y="0" type="line"/>
      <point x="388" y="0" type="line"/>
      <point x="388" y="205" type="line"/>
      <point x="527" y="205" type="line"/>
      <point x="527" y="219" type="line"/>
    </contour>
    <contour>
      <point x="341" y="602"/>
      <point x="357" y="623"/>
      <point x="371" y="643" type="curve"/>
      <point x="372" y="643" type="line"/>
      <point x="372" y="582" type="line"/>
      <point x="372" y="219" type="line"/>
      <point x="56" y="219" type="line"/>
      <point x="328" y="584" type="line" smooth="yes"/>
    </contour>
  </outline>
</glyph>
<glyph name="five" format="2">
  <advance width="535"/>
  <unicode hex="0035"/>
  <outline>
    <contour>
      <point x="176" y="400"/>
      <point x="119" y="361"/>
      <point x="88" y="318" type="curve"/>
      <point x="87" y="318" type="line"/>
      <point x="89" y="337" type="line"/>
      <point x="115" y="646" type="line"/>
      <point x="461" y="646" type="line"/>
      <point x="461" y="660" type="line"/>
      <point x="102" y="660" type="line"/>
      <point x="72" y="301" type="line"/>
      <point x="86" y="301" type="line"/>
      <point x="117" y="342"/>
      <point x="172" y="386"/>
      <point x="280" y="386" type="curve" smooth="yes"/>
      <point x="392" y="386"/>
      <point x="470" y="308"/>
      <point x="470" y="196" type="curve" smooth="yes"/>
      <point x="470" y="83"/>
      <point x="390" y="4"/>
      <point x="275" y="4" type="curve" smooth="yes"/>
      <point x="160" y="4"/>
      <point x="81" y="50"/>
      <point x="64" y="155" type="curve"/>
      <point x="50" y="149" type="line"/>
      <point x="73" y="31"/>
      <point x="161" y="-10"/>
      <point x="275" y="-10" type="curve" smooth="yes"/>
      <point x="399" y="-10"/>
      <point x="486" y="75"/>
      <point x="486" y="196" type="curve" smooth="yes"/>
      <point x="486" y="316"/>
      <point x="401" y="400"/>
      <point x="280" y="400" type="curve" smooth="yes"/>
    </contour>
  </outline>
</glyph>
<glyph name="seven" format="2">
  <advance width="494"/>
  <unicode hex="0037"/>
  <outline>
    <contour>
      <point x="22" y="646" type="line"/>
      <point x="475" y="646" type="line"/>
      <point x="476" y="655" type="line"/>
      <point x="301" y="473"/>
      <point x="221" y="254"/>
      <point x="200" y="0" type="curve"/>
      <point x="217" y="0" type="line"/>
      <point x="238" y="265"/>
      <point x="324" y="473"/>
      <point x="485" y="646" type="curve"/>
      <point x="485" y="660" type="line"/>
      <point x="22" y="660" type="line"/>
    </contour>
  </outline>
</glyph>
<glyph name="nine" format="2">
  <advance width="566"/>
  <unicode hex="0039"/>
  <outline>
    <contour>
      <point x="141" y="670"/>
      <point x="57" y="591"/>
      <point x="57" y="468" type="curve" smooth="yes"/>
      <point x="57" y="345"/>
      <point x="138" y="265"/>
      <point x="268" y="265" type="curve" smooth="yes"/>
      <point x="371" y="265"/>
      <point x="483" y="341"/>
      <point x="477" y="470" type="curve"/>
      <point x="479" y="470" type="line"/>
      <point x="486" y="428"/>
      <point x="491" y="382"/>
      <point x="491" y="334" type="curve" smooth="yes"/>
      <point x="491" y="173"/>
      <point x="438" y="4"/>
      <point x="272" y="4" type="curve" smooth="yes"/>
      <point x="161" y="4"/>
      <point x="94" y="58"/>
      <point x="80" y="139" type="curve"/>
      <point x="63" y="130" type="line"/>
      <point x="81" y="47"/>
      <point x="163" y="-10"/>
      <point x="272" y="-10" type="curve" smooth="yes"/>
      <point x="407" y="-10"/>
      <point x="506" y="102"/>
      <point x="506" y="330" type="curve" smooth="yes"/>
      <point x="506" y="547"/>
      <point x="423" y="670"/>
      <point x="271" y="670" type="curve" smooth="yes"/>
    </contour>
    <contour>
      <point x="387" y="656"/>
      <point x="466" y="574"/>
      <point x="466" y="466" type="curve" smooth="yes"/>
      <point x="466" y="376"/>
      <point x="383" y="279"/>
      <point x="268" y="279" type="curve" smooth="yes"/>
      <point x="150" y="279"/>
      <point x="73" y="354"/>
      <point x="73" y="466" type="curve" smooth="yes"/>
      <point x="73" y="580"/>
      <point x="150" y="656"/>
      <point x="272" y="656" type="curve" smooth="yes"/>
    </contour>
  </outline>
</glyph>
<glyph name="question" format="2">
  <advance width="473"/>
  <unicode hex="003F"/>
  <outline>
    <contour>
      <point x="109" y="670"/>
      <point x="47" y="607"/>
      <point x="30" y="501" type="curve"/>
      <point x="44" y="495" type="line"/>
      <point x="58" y="596"/>
      <point x="115" y="656"/>
      <point x="242" y="656" type="curve" smooth="yes"/>
      <point x="343" y="656"/>
      <point x="416" y="598"/>
      <point x="416" y="501" type="curve" smooth="yes"/>
      <point x="416" y="393"/>
      <point x="368" y="336"/>
      <point x="218" y="290" type="curve"/>
      <point x="218" y="150" type="line"/>
      <point x="234" y="150" type="line"/>
      <point x="234" y="281" type="line"/>
      <point x="374" y="321"/>
      <point x="432" y="389"/>
      <point x="432" y="501" type="curve" smooth="yes"/>
      <point x="432" y="607"/>
      <point x="353" y="670"/>
      <point x="242" y="670" type="curve" smooth="yes"/>
    </contour>
    <component base="period" xOffset="142"/>
  </outline>
</glyph>
<glyph name="I" format="2">
  <advance width="214"/>
  <unicode hex="0049"/>
  <anchor x="107" y="0" name="bottom"/>
  <anchor x="115" y="0" name="bottomC"/>
  <anchor x="115" y="0" name="ogonek"/>
  <anchor x="107" y="660" name="top"/>
  <outline>
    <contour>
      <point x="99" y="660" type="line"/>
      <point x="99" y="0" type="line"/>
      <point x="115" y="0" type="line"/>
      <point x="115" y="660" type="line"/>
    </contour>
  </outline>
</glyph>
<glyph name="M" format="2">
  <advance width="786"/>
  <unicode hex="004D"/>
  <anchor x="393" y="0" name="bottom"/>
  <anchor x="403" y="0" name="bottomC"/>
  <anchor x="687" y="0" name="ogonek"/>
  <anchor x="393" y="660" name="top"/>
  <outline>
    <contour>
      <point x="666" y="660" type="line"/>
      <point x="405" y="47" type="line"/>
      <point x="393" y="19" type="line"/>
      <point x="393" y="19" type="line"/>
      <point x="381" y="48" type="line"/>
      <point x="120" y="660" type="line"/>
      <point x="99" y="660" type="line"/>
      <point x="99" y="0" type="line"/>
      <point x="115" y="0" type="line"/>
      <point x="115" y="580" type="line"/>
      <point x="114" y="637" type="line"/>
      <point x="114" y="637" type="line"/>
      <point x="383" y="0" type="line"/>
      <point x="403" y="0" type="line"/>
      <point x="672" y="637" type="line"/>
      <point x="672" y="637" type="line"/>
      <point x="671" y="580" type="line"/>
      <point x="671" y="0" type="line"/>
      <point x="687" y="0" type="line"/>
      <point x="687" y="660" type="line"/>
    </contour>
  </outline>
</glyph>
<glyph name="N" format="2">
  <advance width="694"/>
  <unicode hex="004E"/>
  <anchor x="347" y="0" name="bottom"/>
  <anchor x="595" y="0" name="bottomC"/>
  <anchor x="595" y="0" name="ogonek"/>
  <anchor x="353" y="660" name="top"/>
  <outline>
    <contour>
      <point x="579" y="660" type="line"/>
      <point x="579" y="73" type="line"/>
      <point x="580" y="16" type="line"/>
      <point x="580" y="16" type="line"/>
      <point x="554" y="55" type="line"/>
      <point x="121" y="660" type="line"/>
      <point x="99" y="660" type="line"/>
      <point x="99" y="0" type="line"/>
      <point x="115" y="0" type="line"/>
      <point x="115" y="587" type="line"/>
      <point x="114" y="644" type="line"/>
      <point x="114" y="644" type="line"/>
      <point x="140" y="605" type="line"/>
      <point x="573" y="0" type="line"/>
      <point x="595" y="0" type="line"/>
      <point x="595" y="660" type="line"/>
    </contour>
  </outline>
</glyph>
<glyph name="V" format="2">
  <advance width="576"/>
  <unicode hex="0056"/>
  <anchor x="288" y="0" name="bottom"/>
  <anchor x="299" y="0" name="bottomC"/>
  <anchor x="299" y="0" name="ogonek"/>
  <anchor x="288" y="660" name="top"/>
  <outline>
    <contour>
      <point x="542" y="660" type="line"/>
      <point x="315" y="87" type="line"/>
      <point x="288" y="18" type="line"/>
      <point x="261" y="87" type="line"/>
      <point x="34" y="660" type="line"/>
      <point x="17" y="660" type="line"/>
      <point x="277" y="0" type="line"/>
      <point x="299" y="0" type="line"/>
      <point x="559" y="660" type="line"/>
    </contour>
  </outline>
</glyph>
<glyph name="bracketleft" format="2">
  <advance width="268"/>
  <unicode hex="005B"/>
  <outline>
    <contour>
      <point x="76" y="730" type="line"/>
      <point x="76" y="-168" type="line"/>
      <point x="91" y="-168" type="line"/>
      <point x="91" y="730" type="line"/>
    </contour>
    <contour>
      <point x="83" y="-154" type="line"/>
      <point x="83" y="-168" type="line"/>
      <point x="257" y="-168" type="line"/>
      <point x="257" y="-154" type="line"/>
    </contour>
    <contour>
      <point x="83" y="730" type="line"/>
      <point x="83" y="716" type="line"/>
      <point x="257" y="716" type="line"/>
      <point x="257" y="730" type="line"/>
    </contour>
  </outline>
</glyph>
<glyph name="asciicircum" format="2">
  <advance width="533"/>
  <unicode hex="005E"/>
  <outline>
    <contour>
      <point x="56" y="355" type="line"/>
      <point x="276" y="730" type="line"/>
      <point x="257" y="730" type="line"/>
      <point x="37" y="355" type="line"/>
    </contour>
    <contour>
      <point x="276" y="730" type="line"/>
      <point x="257" y="730" type="line"/>
      <point x="477" y="355" type="line"/>
      <point x="496" y="355" type="line"/>
    </contour>
  </outline>
</glyph>
<glyph name="grave" format="2">
  <advance width="550"/>
  <unicode hex="0060"/>
  <anchor x="244" y="500" name="_top"/>
  <outline>
    <contour>
      <point x="152" y="730" type="line"/>
      <point x="240" y="583" type="line"/>
      <point x="255" y="583" type="line"/>
      <point x="170" y="730" type="line"/>
    </contour>
  </outline>
</glyph>
<glyph name="b" format="2">
  <advance width="585"/>
  <unicode hex="0062"/>
  <anchor x="302" y="0" name="bottom"/>
  <anchor x="302" y="0" name="bottomC"/>
  <anchor x="422" y="21" name="ogonek"/>
  <anchor x="93" y="730" name="top"/>
  <outline>
    <contour>
      <point x="85" y="730" type="line"/>
      <point x="85" y="101" type="line"/>
      <point x="85" y="0" type="line"/>
      <point x="101" y="0" type="line"/>
      <point x="101" y="173" type="line"/>
      <point x="101" y="176" type="line"/>
      <point x="101" y="730" type="line"/>
    </contour>
    <component base="bowl" xScale="-1" xOffset="658"/>
  </outline>
</glyph>
<glyph name="c" format="2">
  <advance width="524"/>
  <unicode hex="0063"/>
  <anchor x="275" y="0" name="bottom"/>
  <anchor x="258" y="0" name="bottomC"/>
  <anchor x="396" y="21" name="ogonek"/>
  <anchor x="275" y="500" name="top"/>
  <outline>
    <contour>
      <point x="136" y="510"/>
      <point x="51" y="412"/>
      <point x="51" y="250" type="curve" smooth="yes"/>
      <point x="51" y="88"/>
      <point x="133" y="-10"/>
      <point x="278" y="-10" type="curve" smooth="yes"/>
      <point x="379" y="-10"/>
      <point x="465" y="47"/>
      <point x="482" y="137" type="curve"/>
      <point x="468" y="142" type="line"/>
      <point x="454" y="57"/>
      <point x="371" y="4"/>
      <point x="278" y="4" type="curve" smooth="yes"/>
      <point x="143" y="4"/>
      <point x="67" y="97"/>
      <point x="67" y="250" type="curve" smooth="yes"/>
      <point x="67" y="403"/>
      <point x="146" y="496"/>
      <point x="281" y="496" type="curve" smooth="yes"/>
      <point x="375" y="496"/>
      <point x="442" y="449"/>
      <point x="464" y="366" type="curve"/>
      <point x="478" y="373" type="line"/>
      <point x="454" y="461"/>
      <point x="380" y="510"/>
      <point x="281" y="510" type="curve" smooth="yes"/>
    </contour>
  </outline>
</glyph>
<glyph name="d" format="2">
  <advance width="585"/>
  <unicode hex="0064"/>
  <anchor x="283" y="0" name="bottom"/>
  <anchor x="283" y="0" name="bottomC"/>
  <anchor x="301" y="281" name="center"/>
  <anchor x="394" y="21" name="ogonek"/>
  <anchor x="492" y="730" name="top"/>
  <anchor x="611" y="730" name="topright"/>
  <outline>
    <contour>
      <point x="484" y="730" type="line"/>
      <point x="484" y="184" type="line"/>
      <point x="484" y="175" type="line"/>
      <point x="484" y="0" type="line"/>
      <point x="500" y="0" type="line"/>
      <point x="500" y="101" type="line"/>
      <point x="500" y="730" type="line"/>
    </contour>
    <component base="bowl" xOffset="-73"/>
  </outline>
</glyph>
<glyph name="e" format="2">
  <advance width="534"/>
  <unicode hex="0065"/>
  <anchor x="284" y="0" name="bottom"/>
  <anchor x="268" y="0" name="bottomC"/>
  <anchor x="374" y="21" name="ogonek"/>
  <anchor x="271" y="500" name="top"/>
  <outline>
    <contour>
      <point x="371" y="-10"/>
      <point x="447" y="35"/>
      <point x="482" y="109" type="curve"/>
      <point x="469" y="116" type="line"/>
      <point x="436" y="46"/>
      <point x="364" y="4"/>
      <point x="280" y="4" type="curve" smooth="yes"/>
      <point x="145" y="4"/>
      <point x="67" y="96"/>
      <point x="67" y="250" type="curve" smooth="yes"/>
      <point x="67" y="404"/>
      <point x="144" y="496"/>
      <point x="275" y="496" type="curve" smooth="yes"/>
      <point x="402" y="496"/>
      <point x="471" y="403"/>
      <point x="472" y="248" type="curve"/>
      <point x="479" y="254" type="line"/>
      <point x="59" y="254" type="line"/>
      <point x="59" y="239" type="line"/>
      <point x="486" y="239" type="line"/>
      <point x="486" y="241"/>
      <point x="486" y="244"/>
      <point x="486" y="246" type="curve" smooth="yes"/>
      <point x="486" y="411"/>
      <point x="407" y="510"/>
      <point x="275" y="510" type="curve" smooth="yes"/>
      <point x="135" y="510"/>
      <point x="51" y="413"/>
      <point x="51" y="250" type="curve" smooth="yes"/>
      <point x="51" y="87"/>
      <point x="136" y="-10"/>
      <point x="280" y="-10" type="curve" smooth="yes"/>
    </contour>
  </outline>
</glyph>
<glyph name="k" format="2">
  <advance width="482"/>
  <unicode hex="006B"/>
  <anchor x="310" y="0" name="bottom"/>
  <anchor x="93" y="730" name="top"/>
  <outline>
    <contour>
      <point x="441" y="500" type="line"/>
      <point x="93" y="177" type="line"/>
      <point x="93" y="155" type="line"/>
      <point x="237" y="289" type="line"/>
      <point x="241" y="292" type="line"/>
      <point x="465" y="500" type="line"/>
    </contour>
    <contour>
      <point x="85" y="730" type="line"/>
      <point x="85" y="0" type="line"/>
      <point x="101" y="0" type="line"/>
      <point x="101" y="730" type="line"/>
    </contour>
    <contour>
      <point x="228" y="291" type="line"/>
      <point x="450" y="0" type="line"/>
      <point x="470" y="0" type="line"/>
      <point x="240" y="302" type="line"/>
    </contour>
  </outline>
</glyph>
<glyph name="m" format="2">
  <advance width="968"/>
  <unicode hex="006D"/>
  <anchor x="487" y="0" name="bottom"/>
  <anchor x="889" y="0" name="bottomC"/>
  <anchor x="889" y="2" name="ogonek"/>
  <anchor x="487" y="500" name="top"/>
  <outline>
    <contour>
      <point x="578" y="512"/>
      <point x="488" y="425"/>
      <point x="488" y="319" type="curve"/>
      <point x="495" y="303" type="line"/>
      <point x="495" y="407"/>
      <point x="583" y="498"/>
      <point x="700" y="498" type="curve" smooth="yes"/>
      <point x="806" y="498"/>
      <point x="873" y="436"/>
      <point x="873" y="329" type="curve" smooth="yes"/>
      <point x="873" y="2" type="line"/>
      <point x="889" y="2" type="line"/>
      <point x="889" y="331" type="line" smooth="yes"/>
      <point x="889" y="446"/>
      <point x="818" y="512"/>
      <point x="703" y="512" type="curve" smooth="yes"/>
    </contour>
    <contour>
      <point x="85" y="500" type="line"/>
      <point x="85" y="301" type="line"/>
      <point x="85" y="0" type="line"/>
      <point x="101" y="0" type="line"/>
      <point x="101" y="334" type="line"/>
      <point x="101" y="341" type="line"/>
      <point x="101" y="500" type="line"/>
    </contour>
    <contour>
      <point x="184" y="510"/>
      <point x="94" y="423"/>
      <point x="94" y="317" type="curve"/>
      <point x="101" y="301" type="line"/>
      <point x="101" y="405"/>
      <point x="189" y="496"/>
      <point x="306" y="496" type="curve" smooth="yes"/>
      <point x="412" y="496"/>
      <point x="479" y="434"/>
      <point x="479" y="327" type="curve" smooth="yes"/>
      <point x="479" y="0" type="line"/>
      <point x="495" y="0" type="line"/>
      <point x="495" y="329" type="line" smooth="yes"/>
      <point x="495" y="444"/>
      <point x="424" y="510"/>
      <point x="309" y="510" type="curve" smooth="yes"/>
    </contour>
  </outline>
</glyph>
<glyph name="o" format="2">
  <advance width="569"/>
  <unicode hex="006F"/>
  <anchor x="285" y="0" name="bottom"/>
  <anchor x="285" y="0" name="bottomC"/>
  <anchor x="409" y="21" name="ogonek"/>
  <anchor x="285" y="500" name="top"/>
  <outline>
    <contour>
      <point x="140" y="510"/>
      <point x="51" y="412"/>
      <point x="51" y="250" type="curve" smooth="yes"/>
      <point x="51" y="88"/>
      <point x="140" y="-10"/>
      <point x="285" y="-10" type="curve" smooth="yes"/>
      <point x="430" y="-10"/>
      <point x="518" y="88"/>
      <point x="518" y="250" type="curve" smooth="yes"/>
      <point x="518" y="412"/>
      <point x="430" y="510"/>
      <point x="285" y="510" type="curve" smooth="yes"/>
    </contour>
    <contour>
      <point x="420" y="496"/>
      <point x="502" y="403"/>
      <point x="502" y="250" type="curve" smooth="yes"/>
      <point x="502" y="97"/>
      <point x="420" y="4"/>
      <point x="285" y="4" type="curve" smooth="yes"/>
      <point x="150" y="4"/>
      <point x="67" y="97"/>
      <point x="67" y="250" type="curve" smooth="yes"/>
      <point x="67" y="403"/>
      <point x="150" y="496"/>
      <point x="285" y="496" type="curve" smooth="yes"/>
    </contour>
  </outline>
</glyph>
<glyph name="v" format="2">
  <advance width="481"/>
  <unicode hex="0076"/>
  <anchor x="241" y="0" name="bottom"/>
  <anchor x="249" y="0" name="bottomC"/>
  <anchor x="249" y="0" name="ogonek"/>
  <anchor x="241" y="500" name="top"/>
  <outline>
    <contour>
      <point x="441" y="500" type="line"/>
      <point x="232" y="0" type="line"/>
      <point x="249" y="0" type="line"/>
      <point x="459" y="500" type="line"/>
    </contour>
    <contour>
      <point x="22" y="500" type="line"/>
      <point x="232" y="0" type="line"/>
      <point x="249" y="0" type="line"/>
      <point x="40" y="500" type="line"/>
    </contour>
  </outline>
</glyph>
<glyph name="asciitilde" format="2">
  <advance width="479"/>
  <unicode hex="007E"/>
  <outline>
    <contour>
      <point x="420" y="395" type="line"/>
      <point x="411" y="341"/>
      <point x="388" y="315"/>
      <point x="341" y="315" type="curve" smooth="yes"/>
      <point x="261" y="315"/>
      <point x="227" y="389"/>
      <point x="138" y="389" type="curve" smooth="yes"/>
      <point x="83" y="389"/>
      <point x="52" y="358"/>
      <point x="43" y="295" type="curve"/>
      <point x="59" y="295" type="line"/>
      <point x="68" y="349"/>
      <point x="91" y="375"/>
      <point x="138" y="375" type="curve" smooth="yes"/>
      <point x="218" y="375"/>
      <point x="252" y="301"/>
      <point x="341" y="301" type="curve" smooth="yes"/>
      <point x="396" y="301"/>
      <point x="427" y="332"/>
      <point x="436" y="395" type="curve"/>
    </contour>
  </outline>
</glyph>
<glyph name="macron" format="2">
  <advance width="550"/>
  <unicode hex="00AF"/>
  <anchor x="275" y="500" name="_top"/>
  <outline>
    <contour>
      <point x="131" y="619" type="line"/>
      <point x="131" y="605" type="line"/>
      <point x="419" y="605" type="line"/>
      <point x="419" y="619" type="line"/>
    </contour>
  </outline>
</glyph>
<glyph name="degree" format="2">
  <advance width="370"/>
  <unicode hex="00B0"/>
  <outline>
    <contour>
      <point x="266" y="400"/>
      <point x="319" y="455"/>
      <point x="319" y="535" type="curve" smooth="yes"/>
      <point x="319" y="615"/>
      <point x="266" y="670"/>
      <point x="185" y="670" type="curve" smooth="yes"/>
      <point x="104" y="670"/>
      <point x="51" y="615"/>
      <point x="51" y="535" type="curve" smooth="yes"/>
      <point x="51" y="455"/>
      <point x="104" y="400"/>
      <point x="185" y="400" type="curve" smooth="yes"/>
    </contour>
    <contour>
      <point x="113" y="414"/>
      <point x="67" y="464"/>
      <point x="67" y="535" type="curve" smooth="yes"/>
      <point x="67" y="606"/>
      <point x="113" y="656"/>
      <point x="185" y="656" type="curve" smooth="yes"/>
      <point x="257" y="656"/>
      <point x="303" y="606"/>
      <point x="303" y="535" type="curve" smooth="yes"/>
      <point x="303" y="464"/>
      <point x="257" y="414"/>
      <point x="185" y="414" type="curve" smooth="yes"/>
    </contour>
  </outline>
</glyph>
<glyph name="twosuperior" format="2">
  <advance width="329"/>
  <unicode hex="00B2"/>
  <anchor x="161" y="517" name="_indexring"/>
  <outline>
    <contour>
      <point x="298" y="333" type="line"/>
      <point x="298" y="347" type="line"/>
      <point x="85" y="347" type="line" smooth="yes"/>
      <point x="76" y="347"/>
      <point x="68" y="347"/>
      <point x="59" y="347" type="curve"/>
      <point x="59" y="348" type="line"/>
      <point x="93" y="376"/>
      <point x="126" y="405"/>
      <point x="160" y="433" type="curve" smooth="yes"/>
      <point x="219" y="483"/>
      <point x="282" y="551"/>
      <point x="282" y="616" type="curve" smooth="yes"/>
      <point x="282" y="690"/>
      <point x="234" y="735"/>
      <point x="159" y="735" type="curve" smooth="yes"/>
      <point x="82" y="735"/>
      <point x="36" y="683"/>
      <point x="30" y="612" type="curve"/>
      <point x="45" y="609" type="line"/>
      <point x="49" y="678"/>
      <point x="91" y="721"/>
      <point x="159" y="721" type="curve" smooth="yes"/>
      <point x="225" y="721"/>
      <point x="266" y="680"/>
      <point x="266" y="617" type="curve" smooth="yes"/>
      <point x="266" y="555"/>
      <point x="211" y="496"/>
      <point x="151" y="445" type="curve" smooth="yes"/>
      <point x="113" y="413"/>
      <point x="75" y="380"/>
      <point x="37" y="348" type="curve"/>
      <point x="37" y="333" type="line"/>
    </contour>
  </outline>
</glyph>
<glyph name="uni00B5" format="2">
  <advance width="570"/>
  <unicode hex="00B5"/>
  <anchor x="295" y="-210" name="bottom"/>
  <anchor x="485" y="0" name="bottomC"/>
  <anchor x="485" y="0" name="ogonek"/>
  <anchor x="295" y="500" name="top"/>
  <outline>
    <contour>
      <point x="168" y="4"/>
      <point x="101" y="63"/>
      <point x="101" y="169" type="curve"/>
      <point x="89" y="167" type="line"/>
      <point x="89" y="54"/>
      <point x="162" y="-10"/>
      <point x="260" y="-10" type="curve" smooth="yes"/>
      <point x="387" y="-10"/>
      <point x="476" y="77"/>
      <point x="476" y="183" type="curve"/>
      <point x="469" y="199" type="line"/>
      <point x="469" y="95"/>
      <point x="382" y="4"/>
      <point x="263" y="4" type="curve" smooth="yes"/>
    </contour>
    <contour>
      <point x="85" y="500" type="line"/>
      <point x="85" y="-210" type="line"/>
      <point x="101" y="-210" type="line"/>
      <point x="101" y="500" type="line"/>
    </contour>
    <contour>
      <point x="469" y="500" type="line"/>
      <point x="469" y="199" type="line"/>
      <point x="469" y="157" type="line"/>
      <point x="469" y="0" type="line"/>
      <point x="485" y="0" type="line"/>
      <point x="485" y="199" type="line"/>
      <point x="485" y="500" type="line"/>
    </contour>
  </outline>
</glyph>
<glyph name="paragraph" format="2">
  <advance width="516"/>
  <unicode hex="00B6"/>
  <outline>
    <contour>
      <point x="259" y="660" type="line" smooth="yes"/>
      <point x="121" y="660"/>
      <point x="30" y="579"/>
      <point x="30" y="457" type="curve" smooth="yes"/>
      <point x="30" y="335"/>
      <point x="123" y="254"/>
      <point x="264" y="254" type="curve"/>
      <point x="264" y="-100" type="line"/>
      <point x="280" y="-100" type="line"/>
      <point x="280" y="646" type="line"/>
      <point x="419" y="646" type="line"/>
      <point x="419" y="-100" type="line"/>
      <point x="435" y="-100" type="line"/>
      <point x="435" y="660" type="line"/>
    </contour>
    <contour>
      <point x="264" y="268" type="line"/>
      <point x="133" y="268"/>
      <point x="46" y="343"/>
      <point x="46" y="457" type="curve" smooth="yes"/>
      <point x="46" y="571"/>
      <point x="133" y="646"/>
      <point x="264" y="646" type="curve"/>
    </contour>
  </outline>
</glyph>
<glyph name="cedilla" format="2">
  <advance width="550"/>
  <unicode hex="00B8"/>
  <anchor x="280" y="0" name="_bottomC"/>
  <outline>
    <contour>
      <point x="343" y="-45"/>
      <point x="365" y="-77"/>
      <point x="365" y="-119" type="curve" smooth="yes"/>
      <point x="365" y="-161"/>
      <point x="335" y="-189"/>
      <point x="292" y="-189" type="curve" smooth="yes"/>
      <point x="258" y="-189"/>
      <point x="231" y="-180"/>
      <point x="206" y="-148" type="curve"/>
      <point x="198" y="-160" type="line"/>
      <point x="222" y="-192"/>
      <point x="252" y="-202"/>
      <point x="292" y="-202" type="curve" smooth="yes"/>
      <point x="344" y="-202"/>
      <point x="380" y="-168"/>
      <point x="380" y="-118" type="curve" smooth="yes"/>
      <point x="380" y="-71"/>
      <point x="356" y="-36"/>
      <point x="274" y="3" type="curve"/>
      <point x="253" y="3" type="line"/>
    </contour>
  </outline>
</glyph>
<glyph name="Aring" format="2">
  <advance width="586"/>
  <unicode hex="00C5"/>
  <anchor x="293" y="0" name="bottom"/>
  <anchor x="574" y="0" name="bottomC"/>
  <anchor x="574" y="0" name="ogonek"/>
  <anchor x="293" y="776" name="top"/>
  <outline>
    <contour>
      <point x="250" y="786"/>
      <point x="221" y="758"/>
      <point x="221" y="716" type="curve" smooth="yes"/>
      <point x="221" y="674"/>
      <point x="250" y="646"/>
      <point x="293" y="646" type="curve" smooth="yes"/>
      <point x="336" y="646"/>
      <point x="365" y="674"/>
      <point x="365" y="716" type="curve" smooth="yes"/>
      <point x="365" y="758"/>
      <point x="336" y="786"/>
      <point x="293" y="786" type="curve" smooth="yes"/>
    </contour>
    <contour>
      <point x="327" y="772"/>
      <point x="349" y="750"/>
      <point x="349" y="716" type="curve" smooth="yes"/>
      <point x="349" y="682"/>
      <point x="327" y="660"/>
      <point x="293" y="660" type="curve" smooth="yes"/>
      <point x="259" y="660"/>
      <point x="237" y="682"/>
      <point x="237" y="716" type="curve" smooth="yes"/>
      <point x="237" y="750"/>
      <point x="259" y="772"/>
      <point x="293" y="772" type="curve" smooth="yes"/>
    </contour>
    <contour>
      <point x="29" y="0" type="line"/>
      <point x="276" y="597" type="line"/>
      <point x="293" y="642" type="line"/>
      <point x="293" y="642" type="line"/>
      <point x="310" y="596" type="line"/>
      <point x="557" y="0" type="line"/>
      <point x="574" y="0" type="line"/>
      <point x="302" y="660" type="line"/>
      <point x="284" y="660" type="line"/>
      <point x="12" y="0" type="line"/>
    </contour>
    <contour>
      <point x="467" y="234" type="line"/>
      <point x="467" y="248" type="line"/>
      <point x="118" y="248" type="line"/>
      <point x="118" y="234" type="line"/>
    </contour>
  </outline>
</glyph>
<glyph name="oslash" format="2">
  <advance width="570"/>
  <unicode hex="00F8"/>
  <anchor x="285" y="0" name="bottom"/>
  <anchor x="285" y="0" name="bottomC"/>
  <anchor x="409" y="21" name="ogonek"/>
  <anchor x="285" y="500" name="top"/>
  <outline>
    <contour>
      <point x="140" y="510"/>
      <point x="51" y="412"/>
      <point x="51" y="250" type="curve" smooth="yes"/>
      <point x="51" y="165"/>
      <point x="76" y="97"/>
      <point x="120" y="52" type="curve"/>
      <point x="55" y="-30" type="line"/>
      <point x="76" y="-30" type="line"/>
      <point x="132" y="41" type="line"/>
      <point x="171" y="8"/>
      <point x="223" y="-10"/>
      <point x="285" y="-10" type="curve" smooth="yes"/>
      <point x="430" y="-10"/>
      <point x="518" y="88"/>
      <point x="518" y="250" type="curve" smooth="yes"/>
      <point x="518" y="334"/>
      <point x="495" y="400"/>
      <point x="452" y="445" type="curve"/>
      <point x="519" y="530" type="line"/>
      <point x="498" y="530" type="line"/>
      <point x="440" y="456" type="line"/>
      <point x="401" y="491"/>
      <point x="349" y="510"/>
      <point x="285" y="510" type="curve" smooth="yes"/>
    </contour>
    <contour>
      <point x="89" y="107"/>
      <point x="67" y="170"/>
      <point x="67" y="250" type="curve" smooth="yes"/>
      <point x="67" y="403"/>
      <point x="150" y="496"/>
      <point x="285" y="496" type="curve" smooth="yes"/>
      <point x="345" y="496"/>
      <point x="394" y="478"/>
      <point x="431" y="444" type="curve"/>
      <point x="156" y="98" type="line"/>
      <point x="131" y="65" type="line"/>
      <point x="130" y="65" type="line"/>
    </contour>
    <contour>
      <point x="227" y="4"/>
      <point x="178" y="21"/>
      <point x="142" y="53" type="curve"/>
      <point x="423" y="409" type="line"/>
      <point x="441" y="433" type="line"/>
      <point x="442" y="433" type="line"/>
      <point x="481" y="390"/>
      <point x="502" y="328"/>
      <point x="502" y="250" type="curve" smooth="yes"/>
      <point x="502" y="97"/>
      <point x="420" y="4"/>
      <point x="285" y="4" type="curve" smooth="yes"/>
    </contour>
  </outline>
</glyph>
<glyph name="oe" format="2">
  <advance width="986"/>
  <unicode hex="0153"/>
  <anchor x="511" y="0" name="bottom"/>
  <anchor x="697" y="0" name="bottomC"/>
  <anchor x="851" y="21" name="ogonek"/>
  <anchor x="511" y="500" name="top"/>
  <outline>
    <contour>
      <point x="140" y="510"/>
      <point x="51" y="412"/>
      <point x="51" y="250" type="curve" smooth="yes"/>
      <point x="51" y="88"/>
      <point x="140" y="-10"/>
      <point x="285" y="-10" type="curve" smooth="yes"/>
      <point x="430" y="-10"/>
      <point x="518" y="88"/>
      <point x="518" y="250" type="curve" smooth="yes"/>
      <point x="518" y="412"/>
      <point x="430" y="510"/>
      <point x="285" y="510" type="curve" smooth="yes"/>
    </contour>
    <contour>
      <point x="420" y="496"/>
      <point x="502" y="403"/>
      <point x="502" y="250" type="curve" smooth="yes"/>
      <point x="502" y="97"/>
      <point x="420" y="4"/>
      <point x="285" y="4" type="curve" smooth="yes"/>
      <point x="150" y="4"/>
      <point x="67" y="97"/>
      <point x="67" y="250" type="curve" smooth="yes"/>
      <point x="67" y="403"/>
      <point x="150" y="496"/>
      <point x="285" y="496" type="curve" smooth="yes"/>
    </contour>
    <contour>
      <point x="823" y="-10"/>
      <point x="899" y="35"/>
      <point x="934" y="109" type="curve"/>
      <point x="921" y="116" type="line"/>
      <point x="888" y="46"/>
      <point x="816" y="4"/>
      <point x="732" y="4" type="curve" smooth="yes"/>
      <point x="597" y="4"/>
      <point x="519" y="96"/>
      <point x="519" y="250" type="curve" smooth="yes"/>
      <point x="519" y="404"/>
      <point x="596" y="496"/>
      <point x="727" y="496" type="curve" smooth="yes"/>
      <point x="854" y="496"/>
      <point x="923" y="403"/>
      <point x="924" y="248" type="curve"/>
      <point x="931" y="254" type="line"/>
      <point x="511" y="254" type="line"/>
      <point x="511" y="239" type="line"/>
      <point x="938" y="239" type="line"/>
      <point x="938" y="241"/>
      <point x="938" y="244"/>
      <point x="938" y="246" type="curve" smooth="yes"/>
      <point x="938" y="411"/>
      <point x="859" y="510"/>
      <point x="727" y="510" type="curve" smooth="yes"/>
      <point x="587" y="510"/>
      <point x="503" y="413"/>
      <point x="503" y="250" type="curve" smooth="yes"/>
      <point x="503" y="87"/>
      <point x="588" y="-10"/>
      <point x="732" y="-10" type="curve" smooth="yes"/>
    </contour>
  </outline>
</glyph>
<glyph name="uogonek" format="2">
  <advance width="564"/>
  <unicode hex="0173"/>
  <anchor x="280" y="-210" name="bottom"/>
  <anchor x="414" y="-196" name="bottomC"/>
  <anchor x="456" y="-197" name="ogonek"/>
  <anchor x="274" y="500" name="top"/>
  <outline>
    <contour>
      <point x="79" y="500" type="line"/>
      <point x="79" y="167" type="line" smooth="yes"/>
      <point x="79" y="54"/>
      <point x="143" y="-10"/>
      <point x="254" y="-10" type="curve" smooth="yes"/>
      <point x="381" y="-10"/>
      <point x="470" y="77"/>
      <point x="470" y="183" type="curve"/>
      <point x="463" y="196" type="line"/>
      <point x="463" y="122"/>
      <point x="401" y="4"/>
      <point x="257" y="4" type="curve" smooth="yes"/>
      <point x="154" y="4"/>
      <point x="95" y="64"/>
      <point x="95" y="169" type="curve" smooth="yes"/>
      <point x="95" y="500" type="line"/>
    </contour>
    <contour>
      <point x="357" y="-78"/>
      <point x="391" y="-52"/>
      <point x="479" y="0" type="curve"/>
      <point x="467" y="9" type="line"/>
      <point x="376" y="-44"/>
      <point x="342" y="-75"/>
      <point x="342" y="-128" type="curve" smooth="yes"/>
      <point x="342" y="-176"/>
      <point x="380" y="-202"/>
      <point x="430" y="-202" type="curve" smooth="yes"/>
      <point x="466" y="-202"/>
      <point x="487" y="-191"/>
      <point x="503" y="-178" type="curve"/>
      <point x="495" y="-168" type="line"/>
      <point x="481" y="-181"/>
      <point x="464" y="-188"/>
      <point x="430" y="-188" type="curve" smooth="yes"/>
      <point x="388" y="-188"/>
      <point x="357" y="-167"/>
      <point x="357" y="-128" type="curve" smooth="yes"/>
    </contour>
    <contour>
      <point x="463" y="500" type="line"/>
      <point x="463" y="199" type="line"/>
      <point x="463" y="165" type="line"/>
      <point x="463" y="0" type="line"/>
      <point x="479" y="0" type="line"/>
      <point x="479" y="199" type="line"/>
      <point x="479" y="500" type="line"/>
    </contour>
  </outline>
</glyph>
<glyph name="Germandbls" format="2">
  <advance width="639"/>
  <unicode hex="1E9E"/>
  <anchor x="333" y="0" name="bottom"/>
  <anchor x="407" y="0" name="bottomC"/>
  <anchor x="452" y="0" name="ogonek"/>
  <anchor x="333" y="655" name="top"/>
  <outline>
    <contour>
      <point x="115" y="0" type="line"/>
      <point x="115" y="442" type="line" smooth="yes"/>
      <point x="115" y="563"/>
      <point x="189" y="646"/>
      <point x="311" y="646" type="curve" smooth="yes"/>
      <point x="542" y="646" type="line"/>
      <point x="299" y="344" type="line"/>
      <point x="312" y="338" type="line"/>
      <point x="560" y="645" type="line"/>
      <point x="560" y="660" type="line"/>
      <point x="311" y="660" type="line" smooth="yes"/>
      <point x="178" y="660"/>
      <point x="99" y="573"/>
      <point x="99" y="443" type="curve" smooth="yes"/>
      <point x="99" y="0" type="line"/>
    </contour>
    <contour>
      <point x="521" y="-5"/>
      <point x="595" y="70"/>
      <point x="595" y="180" type="curve" smooth="yes"/>
      <point x="595" y="294"/>
      <point x="529" y="344"/>
      <point x="391" y="344" type="curve" smooth="yes"/>
      <point x="299" y="344" type="line"/>
      <point x="299" y="330" type="line"/>
      <point x="391" y="330" type="line" smooth="yes"/>
      <point x="519" y="330"/>
      <point x="579" y="285"/>
      <point x="579" y="180" type="curve" smooth="yes"/>
      <point x="579" y="78"/>
      <point x="508" y="8"/>
      <point x="406" y="8" type="curve" smooth="yes"/>
      <point x="333" y="8"/>
      <point x="287" y="35"/>
      <point x="267" y="67" type="curve"/>
      <point x="256" y="55" type="line"/>
      <point x="275" y="23"/>
      <point x="333" y="-5"/>
      <point x="406" y="-5" type="curve" smooth="yes"/>
    </contour>
  </outline>
</glyph>
<glyph name="perthousand" format="2">
  <advance width="1109"/>
  <unicode hex="2030"/>
  <outline>
    <contour>
      <point x="833" y="333"/>
      <point x="792" y="251"/>
      <point x="792" y="166" type="curve" smooth="yes"/>
      <point x="792" y="81"/>
      <point x="834" y="0"/>
      <point x="932" y="0" type="curve" smooth="yes"/>
      <point x="1030" y="0"/>
      <point x="1070" y="81"/>
      <point x="1070" y="166" type="curve" smooth="yes"/>
      <point x="1070" y="251"/>
      <point x="1030" y="333"/>
      <point x="932" y="333" type="curve" smooth="yes"/>
    </contour>
    <contour>
      <point x="1017" y="319"/>
      <point x="1054" y="246"/>
      <point x="1054" y="166" type="curve" smooth="yes"/>
      <point x="1054" y="86"/>
      <point x="1017" y="14"/>
      <point x="932" y="14" type="curve" smooth="yes"/>
      <point x="846" y="14"/>
      <point x="808" y="86"/>
      <point x="808" y="166" type="curve" smooth="yes"/>
      <point x="808" y="246"/>
      <point x="845" y="319"/>
      <point x="932" y="319" type="curve" smooth="yes"/>
    </contour>
    <component base="percent"/>
  </outline>
</glyph>
<glyph name="zerosuperior" format="2">
  <advance width="358"/>
  <unicode hex="2070"/>
  <outline>
    <contour>
      <point x="270" y="327"/>
      <point x="320" y="399"/>
      <point x="320" y="531" type="curve" smooth="yes"/>
      <point x="320" y="663"/>
      <point x="270" y="735"/>
      <point x="179" y="735" type="curve" smooth="yes"/>
      <point x="88" y="735"/>
      <point x="38" y="663"/>
      <point x="38" y="531" type="curve" smooth="yes"/>
      <point x="38" y="399"/>
      <point x="88" y="327"/>
      <point x="179" y="327" type="curve" smooth="yes"/>
    </contour>
    <contour>
      <point x="99" y="341"/>
      <point x="54" y="409"/>
      <point x="54" y="531" type="curve" smooth="yes"/>
      <point x="54" y="653"/>
      <point x="99" y="721"/>
      <point x="179" y="721" type="curve" smooth="yes"/>
      <point x="259" y="721"/>
      <point x="304" y="653"/>
      <point x="304" y="531" type="curve" smooth="yes"/>
      <point x="304" y="409"/>
      <point x="259" y="341"/>
      <point x="179" y="341" type="curve" smooth="yes"/>
    </contour>
  </outline>
</glyph>
<glyph name="sixsuperior" format="2">
  <advance width="338"/>
  <unicode hex="2076"/>
  <anchor x="180" y="530" name="_indexring"/>
  <outline>
    <contour>
      <point x="258" y="327"/>
      <point x="304" y="375"/>
      <point x="304" y="451" type="curve" smooth="yes"/>
      <point x="304" y="527"/>
      <point x="258" y="575"/>
      <point x="180" y="575" type="curve" smooth="yes"/>
      <point x="117" y="575"/>
      <point x="62" y="535"/>
      <point x="57" y="470" type="curve"/>
      <point x="56" y="470" type="line"/>
      <point x="54" y="486"/>
      <point x="53" y="503"/>
      <point x="53" y="520" type="curve" smooth="yes"/>
      <point x="53" y="620"/>
      <point x="88" y="721"/>
      <point x="185" y="721" type="curve" smooth="yes"/>
      <point x="237" y="721"/>
      <point x="268" y="693"/>
      <point x="282" y="655" type="curve"/>
      <point x="295" y="660" type="line"/>
      <point x="278" y="706"/>
      <point x="245" y="735"/>
      <point x="186" y="735" type="curve" smooth="yes"/>
      <point x="101" y="735"/>
      <point x="39" y="666"/>
      <point x="39" y="531" type="curve" smooth="yes"/>
      <point x="39" y="400"/>
      <point x="87" y="327"/>
      <point x="179" y="327" type="curve" smooth="yes"/>
    </contour>
    <contour>
      <point x="115" y="341"/>
      <point x="66" y="390"/>
      <point x="66" y="452" type="curve" smooth="yes"/>
      <point x="66" y="505"/>
      <point x="110" y="561"/>
      <point x="181" y="561" type="curve" smooth="yes"/>
      <point x="245" y="561"/>
      <point x="288" y="518"/>
      <point x="288" y="451" type="curve" smooth="yes"/>
      <point x="288" y="384"/>
      <point x="248" y="341"/>
      <point x="179" y="341" type="curve" smooth="yes"/>
    </contour>
  </outline>
</glyph>
<glyph name="Euro" format="2">
  <advance width="648"/>
  <unicode hex="20AC"/>
  <outline>
    <contour>
      <point x="35" y="263" type="line"/>
      <point x="35" y="248" type="line"/>
      <point x="385" y="248" type="line"/>
      <point x="395" y="263" type="line"/>
    </contour>
    <contour>
      <point x="35" y="413" type="line"/>
      <point x="35" y="398" type="line"/>
      <point x="425" y="398" type="line"/>
      <point x="435" y="413" type="line"/>
    </contour>
    <component base="euro.part"/>
  </outline>
</glyph>
<glyph name="uni20BD" format="2">
  <advance width="587"/>
  <unicode hex="20BD"/>
  <outline>
    <contour>
      <point x="137" y="660" type="line"/>
      <point x="137" y="646" type="line"/>
      <point x="333" y="646" type="line" smooth="yes"/>
      <point x="464" y="646"/>
      <point x="542" y="582"/>
      <point x="542" y="475" type="curve" smooth="yes"/>
      <point x="542" y="368"/>
      <point x="464" y="305"/>
      <point x="333" y="305" type="curve" smooth="yes"/>
      <point x="27" y="305" type="line"/>
      <point x="27" y="291" type="line"/>
      <point x="333" y="291" type="line" smooth="yes"/>
      <point x="474" y="291"/>
      <point x="558" y="359"/>
      <point x="558" y="475" type="curve" smooth="yes"/>
      <point x="558" y="591"/>
      <point x="474" y="660"/>
      <point x="333" y="660" type="curve" smooth="yes"/>
    </contour>
    <contour>
      <point x="129" y="660" type="line"/>
      <point x="129" y="0" type="line"/>
      <point x="145" y="0" type="line"/>
      <point x="145" y="660" type="line"/>
    </contour>
    <contour>
      <point x="380" y="192" type="line"/>
      <point x="27" y="192" type="line"/>
      <point x="27" y="178" type="line"/>
      <point x="380" y="178" type="line"/>
    </contour>
  </outline>
</glyph>
<glyph name="uni2126" format="2">
  <advance width="725"/>
  <unicode hex="2126"/>
  <outline>
    <contour>
      <point x="180" y="670"/>
      <point x="62" y="540"/>
      <point x="62" y="340" type="curve" smooth="yes"/>
      <point x="62" y="164"/>
      <point x="153" y="53"/>
      <point x="288" y="3" type="curve"/>
      <point x="294" y="14" type="line"/>
      <point x="166" y="60"/>
      <point x="78" y="167"/>
      <point x="78" y="340" type="curve" smooth="yes"/>
      <point x="78" y="532"/>
      <point x="190" y="656"/>
      <point x="363" y="656" type="curve" smooth="yes"/>
      <point x="535" y="656"/>
      <point x="647" y="532"/>
      <point x="647" y="340" type="curve" smooth="yes"/>
      <point x="647" y="167"/>
      <point x="559" y="60"/>
      <point x="431" y="14" type="curve"/>
      <point x="436" y="3" type="line"/>
      <point x="572" y="53"/>
      <point x="663" y="164"/>
      <point x="663" y="340" type="curve" smooth="yes"/>
      <point x="663" y="540"/>
      <point x="545" y="670"/>
      <point x="363" y="670" type="curve" smooth="yes"/>
    </contour>
    <contour>
      <point x="61" y="0" type="line"/>
      <point x="294" y="0" type="line"/>
      <point x="294" y="14" type="line"/>
      <point x="61" y="14" type="line"/>
    </contour>
    <contour>
      <point x="431" y="14" type="line"/>
      <point x="431" y="0" type="line"/>
      <point x="664" y="0" type="line"/>
      <point x="664" y="14" type="line"/>
    </contour>
  </outline>
</glyph>
<glyph name="uni2206" format="2">
  <advance width="605"/>
  <unicode hex="2206"/>
  <outline>
    <contour>
      <point x="292" y="660" type="line"/>
      <point x="28" y="14" type="line"/>
      <point x="28" y="0" type="line"/>
      <point x="577" y="0" type="line"/>
      <point x="577" y="14" type="line"/>
      <point x="315" y="660" type="line"/>
    </contour>
    <contour>
      <point x="559" y="14" type="line"/>
      <point x="46" y="14" type="line"/>
      <point x="303" y="648" type="line"/>
    </contour>
  </outline>
</glyph>
<glyph name="product" format="2">
  <advance width="624"/>
  <unicode hex="220F"/>
  <outline>
    <contour>
      <point x="530" y="660" type="line"/>
      <point x="530" y="-128" type="line"/>
      <point x="546" y="-128" type="line"/>
      <point x="546" y="660" type="line"/>
    </contour>
    <contour>
      <point x="78" y="660" type="line"/>
      <point x="78" y="-128" type="line"/>
      <point x="94" y="-128" type="line"/>
      <point x="94" y="660" type="line"/>
    </contour>
    <contour>
      <point x="86" y="660" type="line"/>
      <point x="86" y="646" type="line"/>
      <point x="539" y="646" type="line"/>
      <point x="539" y="660" type="line"/>
    </contour>
  </outline>
</glyph>
<glyph name="notequal" format="2">
  <advance width="604"/>
  <unicode hex="2260"/>
  <outline>
    <contour>
      <point x="407" y="547" type="line"/>
      <point x="181" y="74" type="line"/>
      <point x="199" y="74" type="line"/>
      <point x="424" y="547" type="line"/>
    </contour>
    <contour>
      <point x="87" y="422" type="line"/>
      <point x="87" y="408" type="line"/>
      <point x="517" y="408" type="line"/>
      <point x="517" y="422" type="line"/>
    </contour>
    <contour>
      <point x="87" y="218" type="line"/>
      <point x="87" y="204" type="line"/>
      <point x="517" y="204" type="line"/>
      <point x="517" y="218" type="line"/>
    </contour>
  </outline>
</glyph>
<glyph name="whiteCircle" format="2">
  <advance width="600"/>
  <unicode hex="25CB"/>
  <outline>
    <contour>
      <point x="421" y="35"/>
      <point x="513" y="127"/>
      <point x="513" y="250" type="curve" smooth="yes"/>
      <point x="513" y="373"/>
      <point x="421" y="465"/>
      <point x="300" y="465" type="curve" smooth="yes"/>
      <point x="179" y="465"/>
      <point x="87" y="373"/>
      <point x="87" y="250" type="curve" smooth="yes"/>
      <point x="87" y="127"/>
      <point x="179" y="35"/>
      <point x="300" y="35" type="curve" smooth="yes"/>
    </contour>
    <contour>
      <point x="188" y="49"/>
      <point x="103" y="135"/>
      <point x="103" y="250" type="curve" smooth="yes"/>
      <point x="103" y="365"/>
      <point x="188" y="451"/>
      <point x="300" y="451" type="curve" smooth="yes"/>
      <point x="412" y="451"/>
      <point x="497" y="365"/>
      <point x="497" y="250" type="curve" smooth="yes"/>
      <point x="497" y="135"/>
      <point x="412" y="49"/>
      <point x="300" y="49" type="curve" smooth="yes"/>
    </contour>
  </outline>
</glyph>
<glyph name="heavyquoteleft" format="2">
  <advance width="673"/>
  <unicode hex="275B"/>
  <outline>
    <contour>
      <point x="120" y="696"/>
      <point x="49" y="456"/>
      <point x="49" y="270" type="curve" smooth="yes"/>
      <point x="49" y="119"/>
      <point x="134" y="-10"/>
      <point x="350" y="-10" type="curve" smooth="yes"/>
      <point x="538" y="-10"/>
      <point x="637" y="72"/>
      <point x="637" y="236" type="curve" smooth="yes"/>
      <point x="637" y="395"/>
      <point x="514" y="472"/>
      <point x="363" y="472" type="curve" smooth="yes"/>
      <point x="240" y="472"/>
      <point x="142" y="431"/>
      <point x="81" y="341" type="curve"/>
      <point x="73" y="346" type="line"/>
      <point x="98" y="478"/>
      <point x="168" y="678"/>
      <point x="581" y="641" type="curve"/>
      <point x="569" y="660" type="line"/>
    </contour>
  </outline>
</glyph>
<glyph name="Adieresis.titl.001" format="2">
  <advance width="586"/>
  <outline>
    <contour>
      <point x="29" y="0" type="line"/>
      <point x="276" y="597" type="line"/>
      <point x="293" y="642" type="line"/>
      <point x="293" y="642" type="line"/>
      <point x="310" y="596" type="line"/>
      <point x="557" y="0" type="line"/>
      <point x="574" y="0" type="line"/>
      <point x="302" y="660" type="line"/>
      <point x="284" y="660" type="line"/>
      <point x="12" y="0" type="line"/>
    </contour>
    <contour>
      <point x="467" y="234" type="line"/>
      <point x="467" y="248" type="line"/>
      <point x="118" y="248" type="line"/>
      <point x="118" y="234" type="line"/>
    </contour>
    <contour>
      <point x="201" y="618"/>
      <point x="205" y="619"/>
      <point x="208" y="620" type="curve"/>
      <point x="219" y="642" type="line"/>
      <point x="218" y="654"/>
      <point x="209" y="662"/>
      <point x="197" y="662" type="curve" smooth="yes"/>
      <point x="184" y="662"/>
      <point x="175" y="653"/>
      <point x="175" y="640" type="curve" smooth="yes"/>
      <point x="175" y="627"/>
      <point x="184" y="618"/>
      <point x="197" y="618" type="curve" smooth="yes"/>
    </contour>
    <contour>
      <point x="400" y="618"/>
      <point x="409" y="627"/>
      <point x="409" y="640" type="curve" smooth="yes"/>
      <point x="409" y="653"/>
      <point x="400" y="662"/>
      <point x="387" y="662" type="curve" smooth="yes"/>
      <point x="375" y="662"/>
      <point x="366" y="654"/>
      <point x="365" y="642" type="curve"/>
      <point x="376" y="620" type="line"/>
      <point x="379" y="619"/>
      <point x="383" y="618"/>
      <point x="387" y="618" type="curve" smooth="yes"/>
    </contour>
  </outline>
</glyph>
<glyph name="E.swsh.001" format="2">
  <advance width="687"/>
  <anchor x="317" y="0" name="bottom"/>
  <anchor x="317" y="0" name="bottomC"/>
  <anchor x="504" y="0" name="ogonek"/>
  <anchor x="357" y="660" name="top"/>
  <outline>
    <contour>
      <point x="570" y="264" type="line"/>
      <point x="630" y="252"/>
      <point x="661" y="208"/>
      <point x="661" y="139" type="curve" smooth="yes"/>
      <point x="661" y="49"/>
      <point x="604" y="14"/>
      <point x="499" y="14" type="curve" smooth="yes"/>
      <point x="284" y="14" type="line"/>
      <point x="284" y="0" type="line"/>
      <point x="504" y="0" type="line" smooth="yes"/>
      <point x="616" y="0"/>
      <point x="677" y="43"/>
      <point x="677" y="139" type="curve" smooth="yes"/>
      <point x="677" y="214"/>
      <point x="643" y="260"/>
      <point x="581" y="275" type="curve"/>
    </contour>
    <contour>
      <point x="99" y="0" type="line"/>
      <point x="115" y="0" type="line"/>
      <point x="115" y="660" type="line"/>
      <point x="99" y="660" type="line"/>
    </contour>
    <contour>
      <point x="105" y="330" type="line"/>
      <point x="403" y="330" type="line"/>
      <point x="403" y="344" type="line"/>
      <point x="105" y="344" type="line"/>
    </contour>
    <contour>
      <point x="105" y="646" type="line"/>
      <point x="583" y="646" type="line"/>
      <point x="583" y="660" type="line"/>
      <point x="105" y="660" type="line"/>
    </contour>
    <contour>
      <point x="105" y="0" type="line"/>
      <point x="386" y="0" type="line"/>
      <point x="386" y="14" type="line"/>
      <point x="105" y="14" type="line"/>
    </contour>
  </outline>
</glyph>
<glyph name="Hsuperior" format="2">
  <advance width="424"/>
  <outline>
    <contour>
      <point x="345" y="730" type="line"/>
      <point x="345" y="333" type="line"/>
      <point x="361" y="333" type="line"/>
      <point x="361" y="730" type="line"/>
    </contour>
    <contour>
      <point x="63" y="730" type="line"/>
      <point x="63" y="333" type="line"/>
      <point x="79" y="333" type="line"/>
      <point x="79" y="730" type="line"/>
    </contour>
    <contour>
      <point x="71" y="545" type="line"/>
      <point x="71" y="531" type="line"/>
      <point x="352" y="531" type="line"/>
      <point x="352" y="545" type="line"/>
    </contour>
  </outline>
</glyph>
<glyph name="M.swsh.001" format="2">
  <advance width="1000"/>
  <anchor x="607" y="0" name="bottom"/>
  <anchor x="617" y="0" name="bottomC"/>
  <anchor x="901" y="0" name="ogonek"/>
  <anchor x="607" y="660" name="top"/>
  <outline>
    <contour>
      <point x="143" y="361" type="line"/>
      <point x="71" y="377"/>
      <point x="26" y="424"/>
      <point x="26" y="502" type="curve" smooth="yes"/>
      <point x="26" y="602"/>
      <point x="83" y="646"/>
      <point x="188" y="646" type="curve" smooth="yes"/>
      <point x="323" y="646" type="line"/>
      <point x="323" y="660" type="line"/>
      <point x="183" y="660" type="line" smooth="yes"/>
      <point x="71" y="660"/>
      <point x="10" y="608"/>
      <point x="10" y="502" type="curve" smooth="yes"/>
      <point x="10" y="416"/>
      <point x="59" y="366"/>
      <point x="132" y="350" type="curve"/>
    </contour>
    <component base="M" xOffset="214"/>
  </outline>
</glyph>
<glyph name="Odieresis.titl" format="2">
  <advance width="714"/>
  <outline>
    <contour>
      <point x="274" y="600"/>
      <point x="265" y="591"/>
      <point x="265" y="578" type="curve" smooth="yes"/>
      <point x="265" y="565"/>
      <point x="274" y="556"/>
      <point x="287" y="556" type="curve" smooth="yes"/>
      <point x="300" y="556"/>
      <point x="309" y="565"/>
      <point x="309" y="578" type="curve" smooth="yes"/>
      <point x="309" y="591"/>
      <point x="300" y="600"/>
      <point x="287" y="600" type="curve" smooth="yes"/>
    </contour>
    <contour>
      <point x="414" y="600"/>
      <point x="405" y="591"/>
      <point x="405" y="578" type="curve" smooth="yes"/>
      <point x="405" y="565"/>
      <point x="414" y="556"/>
      <point x="427" y="556" type="curve" smooth="yes"/>
      <point x="440" y="556"/>
      <point x="449" y="565"/>
      <point x="449" y="578" type="curve" smooth="yes"/>
      <point x="449" y="591"/>
      <point x="440" y="600"/>
      <point x="427" y="600" type="curve" smooth="yes"/>
    </contour>
    <contour>
      <point x="172" y="670"/>
      <point x="56" y="539"/>
      <point x="56" y="330" type="curve" smooth="yes"/>
      <point x="56" y="121"/>
      <point x="172" y="-10"/>
      <point x="357" y="-10" type="curve" smooth="yes"/>
      <point x="542" y="-10"/>
      <point x="658" y="121"/>
      <point x="658" y="330" type="curve" smooth="yes"/>
      <point x="658" y="539"/>
      <point x="542" y="670"/>
      <point x="357" y="670" type="curve" smooth="yes"/>
    </contour>
    <contour>
      <point x="532" y="656"/>
      <point x="642" y="530"/>
      <point x="642" y="330" type="curve" smooth="yes"/>
      <point x="642" y="130"/>
      <point x="532" y="4"/>
      <point x="357" y="4" type="curve" smooth="yes"/>
      <point x="182" y="4"/>
      <point x="72" y="130"/>
      <point x="72" y="330" type="curve" smooth="yes"/>
      <point x="72" y="530"/>
      <point x="182" y="656"/>
      <point x="357" y="656" type="curve" smooth="yes"/>
    </contour>
  </outline>
</glyph>
<glyph name="W.swsh" format="2">
  <advance width="1109"/>
  <anchor x="655" y="0" name="bottom"/>
  <anchor x="868" y="0" name="bottomC"/>
  <anchor x="868" y="0" name="ogonek"/>
  <anchor x="655" y="660" name="top"/>
  <outline>
    <contour>
      <point x="143" y="361" type="line"/>
      <point x="71" y="377"/>
      <point x="26" y="424"/>
      <point x="26" y="502" type="curve" smooth="yes"/>
      <point x="26" y="602"/>
      <point x="83" y="646"/>
      <point x="188" y="646" type="curve" smooth="yes"/>
      <point x="233" y="646" type="line"/>
      <point x="233" y="660" type="line"/>
      <point x="183" y="660" type="line" smooth="yes"/>
      <point x="71" y="660"/>
      <point x="10" y="608"/>
      <point x="10" y="502" type="curve" smooth="yes"/>
      <point x="10" y="416"/>
      <point x="59" y="366"/>
      <point x="132" y="350" type="curve"/>
    </contour>
    <component base="W" xOffset="200"/>
  </outline>
</glyph>
<glyph name="Ydieresis.titl" format="2">
  <advance width="512"/>
  <outline>
    <contour>
      <point x="332" y="626"/>
      <point x="342" y="636"/>
      <point x="342" y="648" type="curve" smooth="yes"/>
      <point x="342" y="660"/>
      <point x="332" y="670"/>
      <point x="320" y="670" type="curve" smooth="yes"/>
      <point x="308" y="670"/>
      <point x="298" y="660"/>
      <point x="298" y="648" type="curve" smooth="yes"/>
      <point x="298" y="636"/>
      <point x="308" y="626"/>
      <point x="320" y="626" type="curve" smooth="yes"/>
    </contour>
    <contour>
      <point x="202" y="626"/>
      <point x="212" y="636"/>
      <point x="212" y="648" type="curve" smooth="yes"/>
      <point x="212" y="660"/>
      <point x="202" y="670"/>
      <point x="190" y="670" type="curve" smooth="yes"/>
      <point x="178" y="670"/>
      <point x="168" y="660"/>
      <point x="168" y="648" type="curve" smooth="yes"/>
      <point x="168" y="636"/>
      <point x="178" y="626"/>
      <point x="190" y="626" type="curve" smooth="yes"/>
    </contour>
    <contour>
      <point x="477" y="660" type="line"/>
      <point x="348" y="434" type="line"/>
      <point x="256" y="273" type="line"/>
      <point x="164" y="434" type="line"/>
      <point x="35" y="660" type="line"/>
      <point x="16" y="660" type="line"/>
      <point x="248" y="256" type="line"/>
      <point x="248" y="0" type="line"/>
      <point x="264" y="0" type="line"/>
      <point x="264" y="256" type="line"/>
      <point x="496" y="660" type="line"/>
    </contour>
  </outline>
</glyph>
<glyph name="aring.sc" format="2">
  <advance width="524"/>
  <anchor x="262" y="0" name="bottom"/>
  <anchor x="510" y="0" name="bottomC"/>
  <anchor x="510" y="0" name="ogonek"/>
  <anchor x="262" y="676" name="top"/>
  <outline>
    <contour>
      <point x="31" y="0" type="line"/>
      <point x="247" y="503" type="line"/>
      <point x="262" y="543" type="line"/>
      <point x="262" y="543" type="line"/>
      <point x="277" y="503" type="line"/>
      <point x="493" y="0" type="line"/>
      <point x="510" y="0" type="line"/>
      <point x="271" y="560" type="line"/>
      <point x="253" y="560" type="line"/>
      <point x="14" y="0" type="line"/>
    </contour>
    <contour>
      <point x="415" y="197" type="line"/>
      <point x="415" y="211" type="line"/>
      <point x="108" y="211" type="line"/>
      <point x="108" y="197" type="line"/>
    </contour>
    <contour>
      <point x="219" y="686"/>
      <point x="190" y="658"/>
      <point x="190" y="616" type="curve" smooth="yes"/>
      <point x="190" y="574"/>
      <point x="219" y="546"/>
      <point x="262" y="546" type="curve" smooth="yes"/>
      <point x="305" y="546"/>
      <point x="334" y="574"/>
      <point x="334" y="616" type="curve" smooth="yes"/>
      <point x="334" y="658"/>
      <point x="305" y="686"/>
      <point x="262" y="686" type="curve" smooth="yes"/>
    </contour>
    <contour>
      <point x="296" y="672"/>
      <point x="318" y="650"/>
      <point x="318" y="616" type="curve" smooth="yes"/>
      <point x="318" y="582"/>
      <point x="296" y="560"/>
      <point x="262" y="560" type="curve" smooth="yes"/>
      <point x="228" y="560"/>
      <point x="206" y="582"/>
      <point x="206" y="616" type="curve" smooth="yes"/>
      <point x="206" y="650"/>
      <point x="228" y="672"/>
      <point x="262" y="672" type="curve" smooth="yes"/>
    </contour>
  </outline>
</glyph>
<glyph name="b.sc" format="2">
  <advance width="543"/>
  <anchor x="272" y="0" name="bottom"/>
  <anchor x="257" y="0" name="bottomC"/>
  <anchor x="295" y="0" name="ogonek"/>
  <anchor x="272" y="560" name="top"/>
  <outline>
    <contour>
      <point x="295" y="0" type="line" smooth="yes"/>
      <point x="423" y="0"/>
      <point x="490" y="49"/>
      <point x="490" y="144" type="curve" smooth="yes"/>
      <point x="490" y="220"/>
      <point x="444" y="271"/>
      <point x="358" y="282" type="curve"/>
      <point x="358" y="283" type="line"/>
      <point x="432" y="294"/>
      <point x="473" y="345"/>
      <point x="473" y="418" type="curve" smooth="yes"/>
      <point x="473" y="511"/>
      <point x="412" y="560"/>
      <point x="295" y="560" type="curve" smooth="yes"/>
      <point x="90" y="560" type="line"/>
      <point x="90" y="0" type="line"/>
    </contour>
    <contour>
      <point x="106" y="275" type="line"/>
      <point x="295" y="275" type="line" smooth="yes"/>
      <point x="413" y="275"/>
      <point x="474" y="232"/>
      <point x="474" y="145" type="curve" smooth="yes"/>
      <point x="474" y="58"/>
      <point x="413" y="14"/>
      <point x="295" y="14" type="curve" smooth="yes"/>
      <point x="106" y="14" type="line"/>
    </contour>
    <contour>
      <point x="106" y="546" type="line"/>
      <point x="295" y="546" type="line" smooth="yes"/>
      <point x="401" y="546"/>
      <point x="457" y="502"/>
      <point x="457" y="417" type="curve" smooth="yes"/>
      <point x="457" y="332"/>
      <point x="401" y="289"/>
      <point x="295" y="289" type="curve" smooth="yes"/>
      <point x="106" y="289" type="line"/>
    </contour>
  </outline>
</glyph>
<glyph name="braceleft.case" format="2">
  <advance width="259"/>
  <outline>
    <contour>
      <point x="166" y="762"/>
      <point x="122" y="720"/>
      <point x="122" y="650" type="curve" smooth="yes"/>
      <point x="122" y="428" type="line" smooth="yes"/>
      <point x="122" y="369"/>
      <point x="79" y="334"/>
      <point x="8" y="334" type="curve"/>
      <point x="8" y="321" type="line"/>
      <point x="89" y="321"/>
      <point x="138" y="361"/>
      <point x="138" y="428" type="curve" smooth="yes"/>
      <point x="138" y="650" type="line" smooth="yes"/>
      <point x="138" y="711"/>
      <point x="176" y="748"/>
      <point x="239" y="748" type="curve"/>
      <point x="239" y="762" type="line"/>
    </contour>
    <contour>
      <point x="8" y="321" type="line"/>
      <point x="79" y="321"/>
      <point x="122" y="286"/>
      <point x="122" y="227" type="curve" smooth="yes"/>
      <point x="122" y="13" type="line" smooth="yes"/>
      <point x="122" y="-57"/>
      <point x="166" y="-99"/>
      <point x="239" y="-99" type="curve"/>
      <point x="239" y="-85" type="line"/>
      <point x="176" y="-85"/>
      <point x="138" y="-48"/>
      <point x="138" y="13" type="curve" smooth="yes"/>
      <point x="138" y="227" type="line" smooth="yes"/>
      <point x="138" y="294"/>
      <point x="89" y="334"/>
      <point x="8" y="334" type="curve"/>
    </contour>
  </outline>
</glyph>
<glyph name="bracketleft.case" format="2">
  <advance width="268"/>
  <outline>
    <contour>
      <point x="76" y="752" type="line"/>
      <point x="76" y="-97" type="line"/>
      <point x="91" y="-97" type="line"/>
      <point x="91" y="752" type="line"/>
    </contour>
    <contour>
      <point x="83" y="-83" type="line"/>
      <point x="83" y="-97" type="line"/>
      <point x="257" y="-97" type="line"/>
      <point x="257" y="-83" type="line"/>
    </contour>
    <contour>
      <point x="83" y="752" type="line"/>
      <point x="83" y="738" type="line"/>
      <point x="257" y="738" type="line"/>
      <point x="257" y="752" type="line"/>
    </contour>
  </outline>
</glyph>
<glyph name="bracketleftsuperior" format="2">
  <advance width="184"/>
  <outline>
    <contour>
      <point x="90" y="810" type="line"/>
      <point x="74" y="810" type="line"/>
      <point x="74" y="253" type="line"/>
      <point x="90" y="253" type="line"/>
    </contour>
    <contour>
      <point x="81" y="796" type="line"/>
      <point x="185" y="796" type="line"/>
      <point x="185" y="810" type="line"/>
      <point x="81" y="810" type="line"/>
    </contour>
    <contour>
      <point x="81" y="253" type="line"/>
      <point x="185" y="253" type="line"/>
      <point x="185" y="267" type="line"/>
      <point x="81" y="267" type="line"/>
    </contour>
  </outline>
</glyph>
<glyph name="c_t" format="2">
  <advance width="823"/>
  <outline>
    <contour>
      <point x="379" y="-10"/>
      <point x="465" y="47"/>
      <point x="482" y="137" type="curve"/>
      <point x="468" y="142" type="line"/>
      <point x="454" y="57"/>
      <point x="371" y="4"/>
      <point x="278" y="4" type="curve" smooth="yes"/>
      <point x="143" y="4"/>
      <point x="67" y="97"/>
      <point x="67" y="250" type="curve" smooth="yes"/>
      <point x="67" y="403"/>
      <point x="146" y="496"/>
      <point x="281" y="496" type="curve" smooth="yes"/>
      <point x="375" y="496"/>
      <point x="442" y="449"/>
      <point x="464" y="366" type="curve"/>
      <point x="479" y="373" type="line"/>
      <point x="428" y="486"/>
      <point x="410" y="543"/>
      <point x="410" y="592" type="curve" smooth="yes"/>
      <point x="410" y="689"/>
      <point x="454" y="721"/>
      <point x="507" y="721" type="curve" smooth="yes"/>
      <point x="572" y="721"/>
      <point x="605" y="678"/>
      <point x="605" y="582" type="curve" smooth="yes"/>
      <point x="605" y="126" type="line" smooth="yes"/>
      <point x="605" y="37"/>
      <point x="644" y="-10"/>
      <point x="725" y="-10" type="curve" smooth="yes"/>
      <point x="765" y="-10"/>
      <point x="801" y="7"/>
      <point x="821" y="28" type="curve"/>
      <point x="813" y="41" type="line"/>
      <point x="789" y="15"/>
      <point x="760" y="4"/>
      <point x="725" y="4" type="curve" smooth="yes"/>
      <point x="653" y="4"/>
      <point x="621" y="46"/>
      <point x="621" y="126" type="curve" smooth="yes"/>
      <point x="621" y="592" type="line" smooth="yes"/>
      <point x="621" y="687"/>
      <point x="581" y="735"/>
      <point x="507" y="735" type="curve" smooth="yes"/>
      <point x="443" y="735"/>
      <point x="394" y="695"/>
      <point x="394" y="595" type="curve" smooth="yes"/>
      <point x="394" y="544"/>
      <point x="407" y="496"/>
      <point x="436" y="441" type="curve"/>
      <point x="443" y="443" type="line"/>
      <point x="407" y="486"/>
      <point x="352" y="510"/>
      <point x="281" y="510" type="curve" smooth="yes"/>
      <point x="136" y="510"/>
      <point x="51" y="412"/>
      <point x="51" y="250" type="curve" smooth="yes"/>
      <point x="51" y="88"/>
      <point x="133" y="-10"/>
      <point x="278" y="-10" type="curve" smooth="yes"/>
    </contour>
    <contour>
      <point x="814" y="486" type="line"/>
      <point x="814" y="500" type="line"/>
      <point x="615" y="500" type="line"/>
      <point x="615" y="486" type="line"/>
    </contour>
  </outline>
</glyph>
<glyph name="caroncmb.cap" format="2">
  <anchor x="0" y="660" name="_top"/>
  <outline>
    <contour>
      <point x="102" y="885" type="line"/>
      <point x="0" y="756" type="line"/>
      <point x="-102" y="885" type="line"/>
      <point x="-119" y="885" type="line"/>
      <point x="-10" y="743" type="line"/>
      <point x="10" y="743" type="line"/>
      <point x="119" y="885" type="line"/>
    </contour>
  </outline>
</glyph>
<glyph name="cent.001" format="2">
  <advance width="517"/>
  <outline>
    <contour>
      <point x="137" y="510"/>
      <point x="56" y="412"/>
      <point x="56" y="250" type="curve" smooth="yes"/>
      <point x="56" y="88"/>
      <point x="134" y="-10"/>
      <point x="273" y="-10" type="curve" smooth="yes"/>
      <point x="369" y="-10"/>
      <point x="451" y="47"/>
      <point x="467" y="137" type="curve"/>
      <point x="453" y="142" type="line"/>
      <point x="440" y="57"/>
      <point x="361" y="4"/>
      <point x="273" y="4" type="curve" smooth="yes"/>
      <point x="144" y="4"/>
      <point x="72" y="97"/>
      <point x="72" y="250" type="curve" smooth="yes"/>
      <point x="72" y="403"/>
      <point x="147" y="496"/>
      <point x="276" y="496" type="curve" smooth="yes"/>
      <point x="365" y="496"/>
      <point x="428" y="449"/>
      <point x="449" y="366" type="curve"/>
      <point x="463" y="373" type="line"/>
      <point x="440" y="461"/>
      <point x="370" y="510"/>
      <point x="276" y="510" type="curve" smooth="yes"/>
    </contour>
    <contour>
      <point x="260" y="-4" type="line"/>
      <point x="260" y="-120" type="line"/>
      <point x="274" y="-120" type="line"/>
      <point x="274" y="-4" type="line"/>
    </contour>
    <contour>
      <point x="260" y="620" type="line"/>
      <point x="260" y="505" type="line"/>
      <point x="274" y="505" type="line"/>
      <point x="274" y="620" type="line"/>
    </contour>
  </outline>
</glyph>
<glyph name="d.sc" format="2">
  <advance width="608"/>
  <anchor x="275" y="0" name="bottom"/>
  <anchor x="229" y="0" name="bottomC"/>
  <anchor x="314" y="278" name="center"/>
  <anchor x="269" y="0" name="ogonek"/>
  <anchor x="275" y="560" name="top"/>
  <outline>
    <contour>
      <point x="99" y="560" type="line"/>
      <point x="99" y="546" type="line"/>
      <point x="269" y="546" type="line" smooth="yes"/>
      <point x="447" y="546"/>
      <point x="539" y="457"/>
      <point x="539" y="288" type="curve" smooth="yes"/>
      <point x="539" y="108"/>
      <point x="447" y="14"/>
      <point x="269" y="14" type="curve" smooth="yes"/>
      <point x="98" y="14" type="line"/>
      <point x="98" y="0" type="line"/>
      <point x="269" y="0" type="line" smooth="yes"/>
      <point x="457" y="0"/>
      <point x="555" y="99"/>
      <point x="555" y="288" type="curve" smooth="yes"/>
      <point x="555" y="466"/>
      <point x="457" y="560"/>
      <point x="269" y="560" type="curve" smooth="yes"/>
    </contour>
    <contour>
      <point x="90" y="560" type="line"/>
      <point x="90" y="0" type="line"/>
      <point x="106" y="0" type="line"/>
      <point x="106" y="560" type="line"/>
    </contour>
  </outline>
</glyph>
<glyph name="dollar.001" format="2">
  <advance width="559"/>
  <outline>
    <contour>
      <point x="420" y="0"/>
      <point x="502" y="68"/>
      <point x="502" y="165" type="curve" smooth="yes"/>
      <point x="502" y="408"/>
      <point x="88" y="260"/>
      <point x="88" y="487" type="curve" smooth="yes"/>
      <point x="88" y="577"/>
      <point x="163" y="646"/>
      <point x="280" y="646" type="curve" smooth="yes"/>
      <point x="386" y="646"/>
      <point x="457" y="602"/>
      <point x="481" y="502" type="curve"/>
      <point x="494" y="512" type="line"/>
      <point x="466" y="614"/>
      <point x="391" y="660"/>
      <point x="280" y="660" type="curve" smooth="yes"/>
      <point x="149" y="660"/>
      <point x="72" y="578"/>
      <point x="72" y="487" type="curve" smooth="yes"/>
      <point x="72" y="245"/>
      <point x="486" y="388"/>
      <point x="486" y="165" type="curve" smooth="yes"/>
      <point x="486" y="68"/>
      <point x="400" y="14"/>
      <point x="294" y="14" type="curve" smooth="yes"/>
      <point x="181" y="14"/>
      <point x="93" y="72"/>
      <point x="72" y="179" type="curve"/>
      <point x="57" y="171" type="line"/>
      <point x="82" y="60"/>
      <point x="173" y="0"/>
      <point x="294" y="0" type="curve" smooth="yes"/>
    </contour>
    <contour>
      <point x="296" y="-120" type="line"/>
      <point x="296" y="9" type="line"/>
      <point x="282" y="9" type="line"/>
      <point x="282" y="-120" type="line"/>
    </contour>
    <contour>
      <point x="296" y="652" type="line"/>
      <point x="296" y="780" type="line"/>
      <point x="282" y="780" type="line"/>
      <point x="282" y="652" type="line"/>
    </contour>
  </outline>
</glyph>
<glyph name="e.sc" format="2">
  <advance width="520"/>
  <anchor x="282" y="0" name="bottom"/>
  <anchor x="282" y="0" name="bottomC"/>
  <anchor x="490" y="0" name="ogonek"/>
  <anchor x="278" y="560" name="top"/>
  <outline>
    <contour>
      <point x="90" y="560" type="line"/>
      <point x="90" y="0" type="line"/>
      <point x="106" y="0" type="line"/>
      <point x="106" y="560" type="line"/>
    </contour>
    <contour>
      <point x="96" y="14" type="line"/>
      <point x="96" y="0" type="line"/>
      <point x="490" y="0" type="line"/>
      <point x="490" y="14" type="line"/>
    </contour>
    <contour>
      <point x="96" y="293" type="line"/>
      <point x="96" y="279" type="line"/>
      <point x="402" y="279" type="line"/>
      <point x="402" y="293" type="line"/>
    </contour>
    <contour>
      <point x="96" y="560" type="line"/>
      <point x="96" y="546" type="line"/>
      <point x="475" y="546" type="line"/>
      <point x="475" y="560" type="line"/>
    </contour>
  </outline>
</glyph>
<glyph name="exclam.sc" format="2">
  <advance width="168"/>
  <outline>
    <contour>
      <point x="76" y="560" type="line"/>
      <point x="76" y="258" type="line"/>
      <point x="76" y="145" type="line"/>
      <point x="92" y="145" type="line"/>
      <point x="92" y="258" type="line"/>
      <point x="92" y="560" type="line"/>
    </contour>
    <component base="period"/>
  </outline>
</glyph>
<glyph name="f_idieresis" format="2">
  <advance width="506"/>
  <outline>
    <contour>
      <point x="128" y="0" type="line"/>
      <point x="128" y="491" type="line"/>
      <point x="128" y="496" type="line"/>
      <point x="128" y="525"/>
      <point x="128" y="554"/>
      <point x="128" y="583" type="curve" smooth="yes"/>
      <point x="128" y="669"/>
      <point x="172" y="721"/>
      <point x="245" y="721" type="curve" smooth="yes"/>
      <point x="277" y="721"/>
      <point x="297" y="713"/>
      <point x="315" y="692" type="curve"/>
      <point x="322" y="704" type="line"/>
      <point x="306" y="722"/>
      <point x="284" y="735"/>
      <point x="245" y="735" type="curve" smooth="yes"/>
      <point x="162" y="735"/>
      <point x="112" y="678"/>
      <point x="112" y="583" type="curve" smooth="yes"/>
      <point x="112" y="554"/>
      <point x="112" y="525"/>
      <point x="112" y="496" type="curve"/>
      <point x="112" y="492" type="line"/>
      <point x="112" y="0" type="line"/>
    </contour>
    <contour>
      <point x="314" y="486" type="line"/>
      <point x="314" y="500" type="line"/>
      <point x="12" y="500" type="line"/>
      <point x="12" y="486" type="line"/>
    </contour>
    <contour>
      <point x="421" y="0" type="line"/>
      <point x="421" y="500" type="line"/>
      <point x="405" y="500" type="line"/>
      <point x="405" y="0" type="line"/>
    </contour>
    <contour>
      <point x="376" y="598"/>
      <point x="385" y="607"/>
      <point x="385" y="620" type="curve" smooth="yes"/>
      <point x="385" y="633"/>
      <point x="376" y="642"/>
      <point x="363" y="642" type="curve" smooth="yes"/>
      <point x="350" y="642"/>
      <point x="341" y="633"/>
      <point x="341" y="620" type="curve" smooth="yes"/>
      <point x="341" y="607"/>
      <point x="350" y="598"/>
      <point x="363" y="598" type="curve" smooth="yes"/>
    </contour>
    <contour>
      <point x="476" y="598"/>
      <point x="485" y="607"/>
      <point x="485" y="620" type="curve" smooth="yes"/>
      <point x="485" y="633"/>
      <point x="476" y="642"/>
      <point x="463" y="642" type="curve" smooth="yes"/>
      <point x="450" y="642"/>
      <point x="441" y="633"/>
      <point x="441" y="620" type="curve" smooth="yes"/>
      <point x="441" y="607"/>
      <point x="450" y="598"/>
      <point x="463" y="598" type="curve" smooth="yes"/>
    </contour>
  </outline>
</glyph>
<glyph name="four.sc" format="2">
  <advance width="491"/>
  <outline>
    <contour>
      <point x="346" y="0" type="line"/>
      <point x="346" y="173" type="line"/>
      <point x="467" y="173" type="line"/>
      <point x="467" y="186" type="line"/>
      <point x="346" y="186" type="line"/>
      <point x="346" y="560" type="line"/>
      <point x="324" y="560" type="line"/>
      <point x="36" y="186" type="line"/>
      <point x="36" y="173" type="line"/>
      <point x="330" y="173" type="line"/>
      <point x="330" y="0" type="line"/>
    </contour>
    <contour>
      <point x="307" y="513" type="line" smooth="yes"/>
      <point x="314" y="522"/>
      <point x="322" y="533"/>
      <point x="329" y="543" type="curve"/>
      <point x="330" y="543" type="line"/>
      <point x="330" y="186" type="line"/>
      <point x="54" y="186" type="line"/>
    </contour>
  </outline>
</glyph>
<glyph name="idieresis.sc" format="2">
  <advance width="196"/>
  <anchor x="106" y="0" name="bottomC"/>
  <anchor x="98" y="560" name="top"/>
  <anchor x="106" y="0" name="ogonek"/>
  <anchor x="98" y="0" name="bottom"/>
  <outline>
    <contour>
      <point x="35" y="702"/>
      <point x="26" y="693"/>
      <point x="26" y="680" type="curve" smooth="yes"/>
      <point x="26" y="667"/>
      <point x="35" y="658"/>
      <point x="48" y="658" type="curve" smooth="yes"/>
      <point x="61" y="658"/>
      <point x="70" y="667"/>
      <point x="70" y="680" type="curve" smooth="yes"/>
      <point x="70" y="693"/>
      <point x="61" y="702"/>
      <point x="48" y="702" type="curve" smooth="yes"/>
    </contour>
    <contour>
      <point x="135" y="702"/>
      <point x="126" y="693"/>
      <point x="126" y="680" type="curve" smooth="yes"/>
      <point x="126" y="667"/>
      <point x="135" y="658"/>
      <point x="148" y="658" type="curve" smooth="yes"/>
      <point x="161" y="658"/>
      <point x="170" y="667"/>
      <point x="170" y="680" type="curve" smooth="yes"/>
      <point x="170" y="693"/>
      <point x="161" y="702"/>
      <point x="148" y="702" type="curve" smooth="yes"/>
    </contour>
    <component base="i.sc"/>
  </outline>
</glyph>
<glyph name="iogonek_j" format="2">
  <advance width="372"/>
  <anchor x="101" y="0" name="ogonek_1"/>
  <anchor x="250" y="-204" name="ogonek_2"/>
  <anchor x="101" y="0" name="bottomC_1"/>
  <anchor x="221" y="-210" name="bottomC_2"/>
  <anchor x="93" y="0" name="bottom_1"/>
  <anchor x="221" y="-210" name="bottom_2"/>
  <anchor x="93" y="632" name="top_1"/>
  <anchor x="279" y="632" name="top_2"/>
  <outline>
    <contour>
      <point x="103" y="-202"/>
      <point x="114" y="-198"/>
      <point x="129" y="-184" type="curve"/>
      <point x="125" y="-171" type="line"/>
      <point x="111" y="-183"/>
      <point x="102" y="-188"/>
      <point x="84" y="-188" type="curve" smooth="yes"/>
      <point x="41" y="-188"/>
      <point x="17" y="-163"/>
      <point x="17" y="-120" type="curve" smooth="yes"/>
      <point x="17" y="-77"/>
      <point x="43" y="-50"/>
      <point x="101" y="0" type="curve"/>
      <point x="89" y="5" type="line"/>
      <point x="29" y="-45"/>
      <point x="2" y="-74"/>
      <point x="2" y="-120" type="curve" smooth="yes"/>
      <point x="2" y="-172"/>
      <point x="33" y="-202"/>
      <point x="84" y="-202" type="curve" smooth="yes"/>
    </contour>
    <component base="i"/>
    <component base="j.ogonek" xOffset="152"/>
  </outline>
</glyph>
<glyph name="j.sc" format="2">
  <advance width="445"/>
  <anchor x="197" y="0" name="bottom"/>
  <anchor x="195" y="0" name="bottomC"/>
  <anchor x="246" y="0" name="ogonek"/>
  <anchor x="354" y="560" name="top"/>
  <outline>
    <contour>
      <point x="346" y="560" type="line"/>
      <point x="346" y="178" type="line" smooth="yes"/>
      <point x="346" y="73"/>
      <point x="294" y="6"/>
      <point x="190" y="6" type="curve" smooth="yes"/>
      <point x="85" y="6"/>
      <point x="30" y="67"/>
      <point x="47" y="177" type="curve"/>
      <point x="31" y="170" type="line"/>
      <point x="15" y="63"/>
      <point x="73" y="-8"/>
      <point x="190" y="-8" type="curve" smooth="yes"/>
      <point x="303" y="-8"/>
      <point x="362" y="64"/>
      <point x="362" y="178" type="curve" smooth="yes"/>
      <point x="362" y="560" type="line"/>
    </contour>
  </outline>
</glyph>
<glyph name="l.sc" format="2">
  <advance width="485"/>
  <anchor x="300" y="0" name="bottom"/>
  <anchor x="300" y="0" name="bottomC"/>
  <anchor x="471" y="0" name="ogonek"/>
  <anchor x="98" y="560" name="top"/>
  <anchor x="228" y="560" name="topright"/>
  <outline>
    <contour>
      <point x="90" y="560" type="line"/>
      <point x="90" y="0" type="line"/>
      <point x="106" y="0" type="line"/>
      <point x="106" y="560" type="line"/>
    </contour>
    <contour>
      <point x="96" y="14" type="line"/>
      <point x="96" y="0" type="line"/>
      <point x="471" y="0" type="line"/>
      <point x="471" y="14" type="line"/>
    </contour>
  </outline>
</glyph>
<glyph name="longs_l.ss02" format="2">
  <advance width="395"/>
  <anchor x="306" y="0" name="bottomC"/>
  <anchor x="298" y="730" name="top"/>
  <anchor x="306" y="0" name="ogonek"/>
  <anchor x="413" y="730" name="topright"/>
  <anchor x="298" y="0" name="bottom"/>
  <outline>
    <contour>
      <point x="97" y="0" type="line"/>
      <point x="97" y="592" type="line" smooth="yes"/>
      <point x="97" y="678"/>
      <point x="129" y="721"/>
      <point x="190" y="721" type="curve" smooth="yes"/>
      <point x="221" y="721"/>
      <point x="232" y="715"/>
      <point x="249" y="698" type="curve"/>
      <point x="255" y="710" type="line"/>
      <point x="239" y="724"/>
      <point x="226" y="735"/>
      <point x="190" y="735" type="curve" smooth="yes"/>
      <point x="121" y="735"/>
      <point x="81" y="687"/>
      <point x="81" y="592" type="curve" smooth="yes"/>
      <point x="81" y="0" type="line"/>
    </contour>
    <component base="l.ss02" xOffset="201"/>
  </outline>
</glyph>
<glyph name="m.sc" format="2">
  <advance width="699"/>
  <anchor x="350" y="0" name="bottom"/>
  <anchor x="359" y="0" name="bottomC"/>
  <anchor x="609" y="0" name="ogonek"/>
  <anchor x="350" y="560" name="top"/>
  <outline>
    <contour>
      <point x="106" y="0" type="line"/>
      <point x="106" y="487" type="line"/>
      <point x="105" y="539" type="line"/>
      <point x="106" y="539" type="line"/>
      <point x="340" y="0" type="line"/>
      <point x="359" y="0" type="line"/>
      <point x="593" y="539" type="line"/>
      <point x="594" y="539" type="line"/>
      <point x="593" y="487" type="line"/>
      <point x="593" y="0" type="line"/>
      <point x="609" y="0" type="line"/>
      <point x="609" y="560" type="line"/>
      <point x="585" y="560" type="line"/>
      <point x="370" y="66" type="line"/>
      <point x="350" y="19" type="line"/>
      <point x="349" y="19" type="line"/>
      <point x="329" y="66" type="line"/>
      <point x="114" y="560" type="line"/>
      <point x="90" y="560" type="line"/>
      <point x="90" y="0" type="line"/>
    </contour>
  </outline>
</glyph>
<glyph name="n.swsh" format="2">
  <advance width="608"/>
  <anchor x="303" y="0" name="bottom"/>
  <anchor x="558" y="-88" name="bottomC"/>
  <anchor x="558" y="-88" name="ogonek"/>
  <anchor x="293" y="500" name="top"/>
  <outline>
    <contour>
      <point x="184" y="510"/>
      <point x="94" y="423"/>
      <point x="94" y="317" type="curve"/>
      <point x="101" y="301" type="line"/>
      <point x="101" y="405"/>
      <point x="189" y="496"/>
      <point x="306" y="496" type="curve" smooth="yes"/>
      <point x="412" y="496"/>
      <point x="479" y="434"/>
      <point x="479" y="327" type="curve" smooth="yes"/>
      <point x="479" y="-20" type="line" smooth="yes"/>
      <point x="479" y="-62"/>
      <point x="498" y="-90"/>
      <point x="553" y="-90" type="curve" smooth="yes"/>
      <point x="574" y="-90"/>
      <point x="596" y="-84"/>
      <point x="607" y="-74" type="curve"/>
      <point x="610" y="-57" type="line"/>
      <point x="591" y="-73"/>
      <point x="575" y="-76"/>
      <point x="553" y="-76" type="curve" smooth="yes"/>
      <point x="515" y="-76"/>
      <point x="495" y="-57"/>
      <point x="495" y="-20" type="curve" smooth="yes"/>
      <point x="495" y="329" type="line" smooth="yes"/>
      <point x="495" y="444"/>
      <point x="424" y="510"/>
      <point x="309" y="510" type="curve" smooth="yes"/>
    </contour>
    <contour>
      <point x="85" y="500" type="line"/>
      <point x="85" y="301" type="line"/>
      <point x="85" y="0" type="line"/>
      <point x="101" y="0" type="line"/>
      <point x="101" y="292" type="line"/>
      <point x="101" y="301" type="line"/>
      <point x="101" y="500" type="line"/>
    </contour>
  </outline>
</glyph>
<glyph name="nine.tf" format="2">
  <advance width="604"/>
  <outline>
    <contour>
      <point x="162" y="670"/>
      <point x="78" y="591"/>
      <point x="78" y="468" type="curve" smooth="yes"/>
      <point x="78" y="345"/>
      <point x="159" y="265"/>
      <point x="289" y="265" type="curve" smooth="yes"/>
      <point x="392" y="265"/>
      <point x="504" y="341"/>
      <point x="498" y="470" type="curve"/>
      <point x="500" y="470" type="line"/>
      <point x="507" y="428"/>
      <point x="512" y="382"/>
      <point x="512" y="334" type="curve" smooth="yes"/>
      <point x="512" y="173"/>
      <point x="459" y="4"/>
      <point x="293" y="4" type="curve" smooth="yes"/>
      <point x="182" y="4"/>
      <point x="115" y="58"/>
      <point x="101" y="139" type="curve"/>
      <point x="84" y="130" type="line"/>
      <point x="102" y="47"/>
      <point x="184" y="-10"/>
      <point x="293" y="-10" type="curve" smooth="yes"/>
      <point x="428" y="-10"/>
      <point x="527" y="102"/>
      <point x="527" y="330" type="curve" smooth="yes"/>
      <point x="527" y="547"/>
      <point x="444" y="670"/>
      <point x="292" y="670" type="curve" smooth="yes"/>
    </contour>
    <contour>
      <point x="408" y="656"/>
      <point x="487" y="574"/>
      <point x="487" y="466" type="curve" smooth="yes"/>
      <point x="487" y="376"/>
      <point x="404" y="279"/>
      <point x="289" y="279" type="curve" smooth="yes"/>
      <point x="171" y="279"/>
      <point x="94" y="354"/>
      <point x="94" y="466" type="curve" smooth="yes"/>
      <point x="94" y="580"/>
      <point x="171" y="656"/>
      <point x="293" y="656" type="curve" smooth="yes"/>
    </contour>
  </outline>
</glyph>
<glyph name="o.sc" format="2">
  <advance width="634"/>
  <anchor x="317" y="0" name="bottom"/>
  <anchor x="317" y="0" name="bottomC"/>
  <anchor x="387" y="0" name="ogonek"/>
  <anchor x="317" y="560" name="top"/>
  <outline>
    <contour>
      <point x="154" y="568"/>
      <point x="52" y="457"/>
      <point x="52" y="280" type="curve" smooth="yes"/>
      <point x="52" y="103"/>
      <point x="154" y="-8"/>
      <point x="317" y="-8" type="curve" smooth="yes"/>
      <point x="480" y="-8"/>
      <point x="582" y="103"/>
      <point x="582" y="280" type="curve" smooth="yes"/>
      <point x="582" y="457"/>
      <point x="480" y="568"/>
      <point x="317" y="568" type="curve" smooth="yes"/>
    </contour>
    <contour>
      <point x="470" y="554"/>
      <point x="566" y="449"/>
      <point x="566" y="280" type="curve" smooth="yes"/>
      <point x="566" y="111"/>
      <point x="470" y="6"/>
      <point x="317" y="6" type="curve" smooth="yes"/>
      <point x="164" y="6"/>
      <point x="68" y="111"/>
      <point x="68" y="280" type="curve" smooth="yes"/>
      <point x="68" y="449"/>
      <point x="164" y="554"/>
      <point x="317" y="554" type="curve" smooth="yes"/>
    </contour>
  </outline>
</glyph>
<glyph name="odieresis.titl.sc" format="2">
  <advance width="635"/>
  <outline>
    <contour>
      <point x="84" y="565"/>
      <point x="75" y="556"/>
      <point x="75" y="543" type="curve" smooth="yes"/>
      <point x="75" y="530"/>
      <point x="84" y="521"/>
      <point x="97" y="521" type="curve" smooth="yes"/>
      <point x="110" y="521"/>
      <point x="119" y="530"/>
      <point x="119" y="543" type="curve" smooth="yes"/>
      <point x="119" y="556"/>
      <point x="110" y="565"/>
      <point x="97" y="565" type="curve" smooth="yes"/>
    </contour>
    <contour>
      <point x="530" y="565"/>
      <point x="521" y="556"/>
      <point x="521" y="543" type="curve" smooth="yes"/>
      <point x="521" y="530"/>
      <point x="530" y="521"/>
      <point x="543" y="521" type="curve" smooth="yes"/>
      <point x="556" y="521"/>
      <point x="565" y="530"/>
      <point x="565" y="543" type="curve" smooth="yes"/>
      <point x="565" y="556"/>
      <point x="556" y="565"/>
      <point x="543" y="565" type="curve" smooth="yes"/>
    </contour>
    <contour>
      <point x="157" y="568"/>
      <point x="55" y="457"/>
      <point x="55" y="280" type="curve" smooth="yes"/>
      <point x="55" y="103"/>
      <point x="157" y="-8"/>
      <point x="320" y="-8" type="curve" smooth="yes"/>
      <point x="483" y="-8"/>
      <point x="585" y="103"/>
      <point x="585" y="280" type="curve" smooth="yes"/>
      <point x="585" y="457"/>
      <point x="483" y="568"/>
      <point x="320" y="568" type="curve" smooth="yes"/>
    </contour>
    <contour>
      <point x="473" y="554"/>
      <point x="569" y="449"/>
      <point x="569" y="280" type="curve" smooth="yes"/>
      <point x="569" y="111"/>
      <point x="473" y="6"/>
      <point x="320" y="6" type="curve" smooth="yes"/>
      <point x="167" y="6"/>
      <point x="71" y="111"/>
      <point x="71" y="280" type="curve" smooth="yes"/>
      <point x="71" y="449"/>
      <point x="167" y="554"/>
      <point x="320" y="554" type="curve" smooth="yes"/>
    </contour>
  </outline>
</glyph>
<glyph name="oe.sc" format="2">
  <advance width="930"/>
  <anchor x="531" y="0" name="bottom"/>
  <anchor x="531" y="560" name="top"/>
  <outline>
    <contour>
      <point x="465" y="-8"/>
      <point x="537" y="86"/>
      <point x="537" y="280" type="curve"/>
      <point x="537" y="473"/>
      <point x="465" y="568"/>
      <point x="300" y="568" type="curve" smooth="yes"/>
      <point x="150" y="568"/>
      <point x="52" y="457"/>
      <point x="52" y="280" type="curve" smooth="yes"/>
      <point x="52" y="103"/>
      <point x="150" y="-8"/>
      <point x="300" y="-8" type="curve" smooth="yes"/>
    </contour>
    <contour>
      <point x="160" y="6"/>
      <point x="68" y="111"/>
      <point x="68" y="280" type="curve" smooth="yes"/>
      <point x="68" y="448"/>
      <point x="160" y="554"/>
      <point x="300" y="554" type="curve" smooth="yes"/>
      <point x="457" y="554"/>
      <point x="523" y="465"/>
      <point x="523" y="280" type="curve" smooth="yes"/>
      <point x="523" y="95"/>
      <point x="457" y="6"/>
      <point x="300" y="6" type="curve" smooth="yes"/>
    </contour>
    <contour>
      <point x="900" y="0" type="line"/>
      <point x="900" y="14" type="line"/>
      <point x="536" y="14" type="line"/>
      <point x="529" y="0" type="line"/>
    </contour>
    <contour>
      <point x="539" y="0" type="line"/>
      <point x="539" y="560" type="line"/>
      <point x="523" y="560" type="line"/>
      <point x="523" y="0" type="line"/>
    </contour>
    <contour>
      <point x="822" y="279" type="line"/>
      <point x="822" y="293" type="line"/>
      <point x="529" y="293" type="line"/>
      <point x="529" y="279" type="line"/>
    </contour>
    <contour>
      <point x="885" y="546" type="line"/>
      <point x="885" y="560" type="line"/>
      <point x="529" y="560" type="line"/>
      <point x="529" y="546" type="line"/>
    </contour>
  </outline>
</glyph>
<glyph name="q.sc" format="2">
  <advance width="634"/>
  <anchor x="317" y="-210" name="bottom"/>
  <anchor x="454" y="-163" name="bottomC"/>
  <anchor x="489" y="-163" name="ogonek"/>
  <anchor x="317" y="560" name="top"/>
  <outline>
    <contour>
      <point x="310" y="-3" type="line"/>
      <point x="314" y="-107"/>
      <point x="378" y="-165"/>
      <point x="469" y="-165" type="curve" smooth="yes"/>
      <point x="512" y="-165"/>
      <point x="545" y="-154"/>
      <point x="568" y="-133" type="curve"/>
      <point x="560" y="-119" type="line"/>
      <point x="538" y="-142"/>
      <point x="503" y="-151"/>
      <point x="469" y="-151" type="curve" smooth="yes"/>
      <point x="385" y="-151"/>
      <point x="328" y="-101"/>
      <point x="323" y="-2" type="curve"/>
    </contour>
    <component base="o.sc"/>
  </outline>
</glyph>
<glyph name="quotesingle.sc" format="2">
  <advance width="149"/>
  <outline>
    <contour>
      <point x="66" y="570" type="line"/>
      <point x="66" y="411" type="line"/>
      <point x="83" y="411" type="line"/>
      <point x="83" y="570" type="line"/>
    </contour>
  </outline>
</glyph>
<glyph name="r.sc" format="2">
  <advance width="545"/>
  <anchor x="308" y="0" name="bottom"/>
  <anchor x="511" y="0" name="bottomC"/>
  <anchor x="511" y="0" name="ogonek"/>
  <anchor x="261" y="560" name="top"/>
  <outline>
    <contour>
      <point x="98" y="560" type="line"/>
      <point x="98" y="546" type="line"/>
      <point x="301" y="546" type="line" smooth="yes"/>
      <point x="406" y="546"/>
      <point x="469" y="494"/>
      <point x="469" y="407" type="curve" smooth="yes"/>
      <point x="469" y="320"/>
      <point x="406" y="268"/>
      <point x="301" y="268" type="curve" smooth="yes"/>
      <point x="98" y="268" type="line"/>
      <point x="98" y="254" type="line"/>
      <point x="301" y="254" type="line" smooth="yes"/>
      <point x="416" y="254"/>
      <point x="485" y="311"/>
      <point x="485" y="407" type="curve" smooth="yes"/>
      <point x="485" y="503"/>
      <point x="416" y="560"/>
      <point x="301" y="560" type="curve" smooth="yes"/>
    </contour>
    <contour>
      <point x="90" y="560" type="line"/>
      <point x="90" y="0" type="line"/>
      <point x="106" y="0" type="line"/>
      <point x="106" y="560" type="line"/>
    </contour>
    <contour>
      <point x="315" y="260" type="line"/>
      <point x="490" y="0" type="line"/>
      <point x="511" y="0" type="line"/>
      <point x="329" y="267" type="line"/>
    </contour>
  </outline>
</glyph>
<glyph name="s_t" format="2">
  <advance width="783"/>
  <outline>
    <contour>
      <point x="358" y="-10"/>
      <point x="432" y="41"/>
      <point x="432" y="124" type="curve" smooth="yes"/>
      <point x="432" y="194"/>
      <point x="386" y="231"/>
      <point x="251" y="254" type="curve" smooth="yes"/>
      <point x="119" y="277"/>
      <point x="75" y="312"/>
      <point x="75" y="378" type="curve" smooth="yes"/>
      <point x="75" y="445"/>
      <point x="146" y="496"/>
      <point x="244" y="496" type="curve" smooth="yes"/>
      <point x="338" y="496"/>
      <point x="398" y="458"/>
      <point x="417" y="379" type="curve"/>
      <point x="432" y="386" type="line"/>
      <point x="391" y="474"/>
      <point x="370" y="542"/>
      <point x="370" y="591" type="curve" smooth="yes"/>
      <point x="370" y="680"/>
      <point x="406" y="721"/>
      <point x="465" y="721" type="curve" smooth="yes"/>
      <point x="530" y="721"/>
      <point x="565" y="678"/>
      <point x="565" y="582" type="curve" smooth="yes"/>
      <point x="565" y="126" type="line" smooth="yes"/>
      <point x="565" y="37"/>
      <point x="604" y="-10"/>
      <point x="685" y="-10" type="curve" smooth="yes"/>
      <point x="725" y="-10"/>
      <point x="761" y="7"/>
      <point x="781" y="28" type="curve"/>
      <point x="773" y="41" type="line"/>
      <point x="749" y="15"/>
      <point x="720" y="4"/>
      <point x="685" y="4" type="curve" smooth="yes"/>
      <point x="613" y="4"/>
      <point x="581" y="46"/>
      <point x="581" y="126" type="curve" smooth="yes"/>
      <point x="581" y="592" type="line" smooth="yes"/>
      <point x="581" y="687"/>
      <point x="539" y="735"/>
      <point x="465" y="735" type="curve" smooth="yes"/>
      <point x="392" y="735"/>
      <point x="354" y="684"/>
      <point x="354" y="590" type="curve" smooth="yes"/>
      <point x="354" y="550"/>
      <point x="370" y="492"/>
      <point x="394" y="449" type="curve"/>
      <point x="400" y="451" type="line"/>
      <point x="368" y="492"/>
      <point x="315" y="510"/>
      <point x="244" y="510" type="curve" smooth="yes"/>
      <point x="137" y="510"/>
      <point x="59" y="451"/>
      <point x="59" y="374" type="curve" smooth="yes"/>
      <point x="59" y="302"/>
      <point x="106" y="264"/>
      <point x="246" y="239" type="curve" smooth="yes"/>
      <point x="375" y="216"/>
      <point x="416" y="184"/>
      <point x="416" y="124" type="curve" smooth="yes"/>
      <point x="416" y="51"/>
      <point x="349" y="4"/>
      <point x="243" y="4" type="curve" smooth="yes"/>
      <point x="142" y="4"/>
      <point x="69" y="43"/>
      <point x="52" y="118" type="curve"/>
      <point x="37" y="111" type="line"/>
      <point x="56" y="31"/>
      <point x="136" y="-10"/>
      <point x="240" y="-10" type="curve" smooth="yes"/>
    </contour>
    <contour>
      <point x="774" y="486" type="line"/>
      <point x="774" y="500" type="line"/>
      <point x="575" y="500" type="line"/>
      <point x="575" y="486" type="line"/>
    </contour>
  </outline>
</glyph>
<glyph name="sterling.part" format="2">
  <advance width="556"/>
  <outline>
    <contour>
      <point x="214" y="670"/>
      <point x="137" y="598"/>
      <point x="137" y="488" type="curve" smooth="yes"/>
      <point x="137" y="429"/>
      <point x="155" y="387"/>
      <point x="211" y="316" type="curve" smooth="yes"/>
      <point x="266" y="248"/>
      <point x="283" y="209"/>
      <point x="283" y="154" type="curve" smooth="yes"/>
      <point x="283" y="71"/>
      <point x="215" y="4"/>
      <point x="120" y="4" type="curve" smooth="yes"/>
      <point x="72" y="4"/>
      <point x="41" y="24"/>
      <point x="41" y="56" type="curve" smooth="yes"/>
      <point x="41" y="89"/>
      <point x="75" y="111"/>
      <point x="128" y="111" type="curve" smooth="yes"/>
      <point x="252" y="111"/>
      <point x="267" y="-10"/>
      <point x="402" y="-10" type="curve" smooth="yes"/>
      <point x="478" y="-10"/>
      <point x="531" y="27"/>
      <point x="531" y="115" type="curve"/>
      <point x="517" y="115" type="line"/>
      <point x="516" y="43"/>
      <point x="477" y="4"/>
      <point x="402" y="4" type="curve" smooth="yes"/>
      <point x="274" y="4"/>
      <point x="259" y="125"/>
      <point x="127" y="125" type="curve" smooth="yes"/>
      <point x="65" y="125"/>
      <point x="25" y="98"/>
      <point x="25" y="56" type="curve" smooth="yes"/>
      <point x="25" y="16"/>
      <point x="62" y="-10"/>
      <point x="120" y="-10" type="curve" smooth="yes"/>
      <point x="220" y="-10"/>
      <point x="299" y="61"/>
      <point x="299" y="156" type="curve" smooth="yes"/>
      <point x="299" y="210"/>
      <point x="281" y="252"/>
      <point x="226" y="322" type="curve" smooth="yes"/>
      <point x="171" y="394"/>
      <point x="153" y="435"/>
      <point x="153" y="488" type="curve" smooth="yes"/>
      <point x="153" y="590"/>
      <point x="221" y="656"/>
      <point x="329" y="656" type="curve" smooth="yes"/>
      <point x="416" y="656"/>
      <point x="479" y="601"/>
      <point x="487" y="519" type="curve"/>
      <point x="502" y="525" type="line"/>
      <point x="493" y="613"/>
      <point x="427" y="670"/>
      <point x="329" y="670" type="curve" smooth="yes"/>
    </contour>
  </outline>
</glyph>
<glyph name="thorn.sc" format="2">
  <advance width="506"/>
  <anchor x="98" y="0" name="bottom"/>
  <anchor x="98" y="560" name="top"/>
  <outline>
    <contour>
      <point x="263" y="131" type="line" smooth="yes"/>
      <point x="398" y="131"/>
      <point x="468" y="184"/>
      <point x="468" y="288" type="curve" smooth="yes"/>
      <point x="468" y="392"/>
      <point x="398" y="446"/>
      <point x="263" y="446" type="curve" smooth="yes"/>
      <point x="99" y="446" type="line"/>
      <point x="99" y="432" type="line"/>
      <point x="270" y="432" type="line" smooth="yes"/>
      <point x="391" y="432"/>
      <point x="452" y="383"/>
      <point x="452" y="288" type="curve" smooth="yes"/>
      <point x="452" y="193"/>
      <point x="391" y="145"/>
      <point x="270" y="145" type="curve" smooth="yes"/>
      <point x="99" y="145" type="line"/>
      <point x="99" y="131" type="line"/>
    </contour>
    <contour>
      <point x="106" y="0" type="line"/>
      <point x="106" y="560" type="line"/>
      <point x="90" y="560" type="line"/>
      <point x="90" y="0" type="line"/>
    </contour>
  </outline>
</glyph>
<glyph name="three.tf" format="2">
  <advance width="604"/>
  <outline>
    <contour>
      <point x="207" y="670"/>
      <point x="135" y="619"/>
      <point x="106" y="535" type="curve"/>
      <point x="122" y="526" type="line"/>
      <point x="146" y="607"/>
      <point x="212" y="656"/>
      <point x="298" y="656" type="curve" smooth="yes"/>
      <point x="406" y="656"/>
      <point x="471" y="597"/>
      <point x="471" y="498" type="curve" smooth="yes"/>
      <point x="471" y="412"/>
      <point x="419" y="340"/>
      <point x="319" y="340" type="curve" smooth="yes"/>
      <point x="269" y="340" type="line"/>
      <point x="269" y="326" type="line"/>
      <point x="319" y="326" type="line" smooth="yes"/>
      <point x="429" y="326"/>
      <point x="488" y="252"/>
      <point x="488" y="174" type="curve" smooth="yes"/>
      <point x="488" y="66"/>
      <point x="405" y="4"/>
      <point x="303" y="4" type="curve" smooth="yes"/>
      <point x="186" y="4"/>
      <point x="113" y="62"/>
      <point x="95" y="150" type="curve"/>
      <point x="81" y="141" type="line"/>
      <point x="102" y="50"/>
      <point x="181" y="-10"/>
      <point x="303" y="-10" type="curve" smooth="yes"/>
      <point x="413" y="-10"/>
      <point x="504" y="58"/>
      <point x="504" y="172" type="curve" smooth="yes"/>
      <point x="504" y="252"/>
      <point x="444" y="326"/>
      <point x="359" y="332" type="curve"/>
      <point x="359" y="333" type="line"/>
      <point x="442" y="347"/>
      <point x="487" y="416"/>
      <point x="487" y="498" type="curve" smooth="yes"/>
      <point x="487" y="606"/>
      <point x="416" y="670"/>
      <point x="298" y="670" type="curve" smooth="yes"/>
    </contour>
  </outline>
</glyph>
<glyph name="two.osf" format="2">
  <advance width="530"/>
  <outline>
    <contour>
      <point x="146" y="570"/>
      <point x="62" y="489"/>
      <point x="72" y="364" type="curve"/>
      <point x="87" y="358" type="line"/>
      <point x="76" y="478"/>
      <point x="155" y="556"/>
      <point x="266" y="556" type="curve" smooth="yes"/>
      <point x="375" y="556"/>
      <point x="444" y="491"/>
      <point x="444" y="390" type="curve" smooth="yes"/>
      <point x="444" y="239"/>
      <point x="286" y="131"/>
      <point x="66" y="14" type="curve"/>
      <point x="66" y="0" type="line"/>
      <point x="488" y="0" type="line"/>
      <point x="488" y="14" type="line"/>
      <point x="135" y="14" type="line" smooth="yes"/>
      <point x="123" y="14"/>
      <point x="111" y="14"/>
      <point x="96" y="14" type="curve"/>
      <point x="96" y="15" type="line"/>
      <point x="103" y="18"/>
      <point x="110" y="21"/>
      <point x="117" y="25" type="curve" smooth="yes"/>
      <point x="324" y="140"/>
      <point x="459" y="238"/>
      <point x="459" y="390" type="curve" smooth="yes"/>
      <point x="459" y="500"/>
      <point x="385" y="570"/>
      <point x="266" y="570" type="curve" smooth="yes"/>
    </contour>
  </outline>
</glyph>
<glyph name="two.sc" format="2">
  <advance width="523"/>
  <outline>
    <contour>
      <point x="148" y="568"/>
      <point x="66" y="488"/>
      <point x="76" y="384" type="curve"/>
      <point x="90" y="379" type="line"/>
      <point x="79" y="478"/>
      <point x="157" y="554"/>
      <point x="264" y="554" type="curve" smooth="yes"/>
      <point x="370" y="554"/>
      <point x="436" y="490"/>
      <point x="436" y="390" type="curve" smooth="yes"/>
      <point x="436" y="239"/>
      <point x="279" y="131"/>
      <point x="81" y="14" type="curve"/>
      <point x="81" y="0" type="line"/>
      <point x="481" y="0" type="line"/>
      <point x="481" y="14" type="line"/>
      <point x="140" y="14" type="line" smooth="yes"/>
      <point x="109" y="14"/>
      <point x="120" y="14"/>
      <point x="111" y="14" type="curve"/>
      <point x="111" y="15" type="line"/>
      <point x="307" y="132"/>
      <point x="452" y="234"/>
      <point x="452" y="390" type="curve" smooth="yes"/>
      <point x="452" y="499"/>
      <point x="380" y="568"/>
      <point x="264" y="568" type="curve" smooth="yes"/>
    </contour>
  </outline>
</glyph>
<glyph name="w.sc" format="2">
  <advance width="807"/>
  <anchor x="404" y="0" name="bottom"/>
  <anchor x="593" y="0" name="bottomC"/>
  <anchor x="593" y="0" name="ogonek"/>
  <anchor x="404" y="560" name="top"/>
  <outline>
    <contour>
      <point x="404" y="539" type="line"/>
      <point x="435" y="439" type="line"/>
      <point x="572" y="0" type="line"/>
      <point x="593" y="0" type="line"/>
      <point x="784" y="560" type="line"/>
      <point x="767" y="560" type="line"/>
      <point x="653" y="224" type="line"/>
      <point x="582" y="15" type="line"/>
      <point x="414" y="560" type="line"/>
      <point x="393" y="560" type="line"/>
      <point x="225" y="15" type="line"/>
      <point x="156" y="218" type="line"/>
      <point x="40" y="560" type="line"/>
      <point x="23" y="560" type="line"/>
      <point x="214" y="0" type="line"/>
      <point x="235" y="0" type="line"/>
      <point x="373" y="439" type="line"/>
      <point x="403" y="539" type="line"/>
    </contour>
  </outline>
</glyph>
<glyph name="whiteDiamond.case" format="2">
  <advance width="660"/>
  <outline>
    <contour>
      <point x="615" y="330" type="line"/>
      <point x="330" y="615" type="line"/>
      <point x="45" y="330" type="line"/>
      <point x="330" y="45" type="line"/>
    </contour>
    <contour>
      <point x="70" y="330" type="line"/>
      <point x="330" y="590" type="line"/>
      <point x="590" y="330" type="line"/>
      <point x="330" y="70" type="line"/>
    </contour>
  </outline>
</glyph>
<glyph name="y.sc" format="2">
  <advance width="458"/>
  <anchor x="229" y="0" name="bottom"/>
  <anchor x="237" y="0" name="bottomC"/>
  <anchor x="237" y="0" name="ogonek"/>
  <anchor x="229" y="560" name="top"/>
  <outline>
    <contour>
      <point x="221" y="0" type="line"/>
      <point x="237" y="0" type="line"/>
      <point x="237" y="217" type="line"/>
      <point x="441" y="560" type="line"/>
      <point x="423" y="560" type="line"/>
      <point x="309" y="368" type="line"/>
      <point x="229" y="233" type="line"/>
      <point x="149" y="368" type="line"/>
      <point x="36" y="560" type="line"/>
      <point x="17" y="560" type="line"/>
      <point x="221" y="217" type="line"/>
    </contour>
  </outline>
</glyph>
<glyph name="yen.tf" format="2">
  <advance width="604"/>
  <outline>
    <contour>
      <point x="62" y="660" type="line"/>
      <point x="294" y="259" type="line"/>
      <point x="310" y="259" type="line"/>
      <point x="542" y="660" type="line"/>
      <point x="523" y="660" type="line"/>
      <point x="317" y="297" type="line"/>
      <point x="303" y="273" type="line"/>
      <point x="301" y="273" type="line"/>
      <point x="287" y="297" type="line"/>
      <point x="81" y="660" type="line"/>
    </contour>
    <contour>
      <point x="310" y="0" type="line"/>
      <point x="310" y="263" type="line"/>
      <point x="294" y="263" type="line"/>
      <point x="294" y="0" type="line"/>
    </contour>
    <contour>
      <point x="517" y="133" type="line"/>
      <point x="517" y="147" type="line"/>
      <point x="88" y="147" type="line"/>
      <point x="88" y="133" type="line"/>
    </contour>
    <contour>
      <point x="517" y="256" type="line"/>
      <point x="517" y="270" type="line"/>
      <point x="329" y="270" type="line"/>
      <point x="302" y="270" type="line"/>
      <point x="276" y="270" type="line"/>
      <point x="88" y="270" type="line"/>
      <point x="88" y="256" type="line"/>
    </contour>
  </outline>
</glyph>
<glyph name="z.sc" format="2">
  <advance width="494"/>
  <anchor x="247" y="0" name="bottom"/>
  <anchor x="247" y="0" name="bottomC"/>
  <anchor x="469" y="0" name="ogonek"/>
  <anchor x="247" y="560" name="top"/>
  <outline>
    <contour>
      <point x="84" y="62" type="line"/>
      <point x="451" y="546" type="line"/>
      <point x="451" y="560" type="line"/>
      <point x="35" y="560" type="line"/>
      <point x="35" y="546" type="line"/>
      <point x="440" y="546" type="line"/>
      <point x="437" y="552" type="line"/>
      <point x="400" y="503" type="line"/>
      <point x="29" y="14" type="line"/>
      <point x="29" y="0" type="line"/>
      <point x="469" y="0" type="line"/>
      <point x="469" y="14" type="line"/>
      <point x="41" y="14" type="line"/>
      <point x="44" y="8" type="line"/>
    </contour>
  </outline>
</glyph>
<glyph name="zero.osf.zero" format="2">
  <advance width="570"/>
  <outline>
    <contour>
      <point x="416" y="523" type="line"/>
      <point x="402" y="533" type="line"/>
      <point x="154" y="37" type="line"/>
      <point x="167" y="27" type="line"/>
    </contour>
    <component base="zero.osf"/>
  </outline>
</glyph>
<glyph name="zero.sc" format="2">
  <advance width="554"/>
  <outline>
    <contour>
      <point x="134" y="570"/>
      <point x="55" y="467"/>
      <point x="55" y="280" type="curve" smooth="yes"/>
      <point x="55" y="93"/>
      <point x="134" y="-10"/>
      <point x="277" y="-10" type="curve" smooth="yes"/>
      <point x="420" y="-10"/>
      <point x="499" y="93"/>
      <point x="499" y="280" type="curve" smooth="yes"/>
      <point x="499" y="467"/>
      <point x="420" y="570"/>
      <point x="277" y="570" type="curve" smooth="yes"/>
    </contour>
    <contour>
      <point x="410" y="556"/>
      <point x="483" y="459"/>
      <point x="483" y="280" type="curve" smooth="yes"/>
      <point x="483" y="101"/>
      <point x="410" y="4"/>
      <point x="277" y="4" type="curve" smooth="yes"/>
      <point x="144" y="4"/>
      <point x="71" y="101"/>
      <point x="71" y="280" type="curve" smooth="yes"/>
      <point x="71" y="459"/>
      <point x="144" y="556"/>
      <point x="277" y="556" type="curve" smooth="yes"/>
    </contour>
  </outline>
</glyph>
<glyph name="zero.tf.zero" format="2">
  <advance width="604"/>
  <outline>
    <contour>
      <point x="428" y="619" type="line"/>
      <point x="414" y="629" type="line"/>
      <point x="177" y="42" type="line"/>
      <point x="190" y="32" type="line"/>
    </contour>
    <component base="zero.tf"/>
  </outline>
</glyph>
